<?xml version="1.0" encoding="UTF-8"?>
<svg version="1.1" xmlns="http://www.w3.org/2000/svg" width="437" height="443">
<path d="M0 0 C3.6875 0.25 3.6875 0.25 5.5625 1.75 C8.96074167 4.14875882 12.65387297 3.48270925 16.6875 3.25 C17.6775 5.56 18.6675 7.87 19.6875 10.25 C20.3475 10.25 21.0075 10.25 21.6875 10.25 C23.0075 13.22 24.3275 16.19 25.6875 19.25 C26.80535113 17.13214887 26.80535113 17.13214887 27.6875 14.25 C28.3475 13.26 29.0075 12.27 29.6875 11.25 C30.41389775 9.86348166 31.12171324 8.46709975 31.8125 7.0625 C32.16570312 6.34707031 32.51890625 5.63164062 32.8828125 4.89453125 C33.14835937 4.35183594 33.41390625 3.80914062 33.6875 3.25 C36.3275 3.25 38.9675 3.25 41.6875 3.25 C41.3575 5.89 41.0275 8.53 40.6875 11.25 C43.80947478 9.9410428 43.80947478 9.9410428 45.6875 7.25 C50.64434185 3.59875489 55.34586129 1.45905484 61.55078125 1.81640625 C65.16069141 2.54894743 67.62729964 4.20986643 70.6875 6.25 C71.863125 6.683125 71.863125 6.683125 73.0625 7.125 C74.6875 8.25 74.6875 8.25 75.4375 11.375 C75.52 12.32375 75.6025 13.2725 75.6875 14.25 C76.863125 13.074375 76.863125 13.074375 78.0625 11.875 C79.60416667 10.33333333 81.14583333 8.79166667 82.6875 7.25 C82.6875 6.59 82.6875 5.93 82.6875 5.25 C89.19644531 1.63391927 97.61090133 0.98317905 104.81640625 2.78125 C108.49539646 4.24331091 111.32929741 6.07549652 113.6875 9.25 C114.60036723 13.48570393 114.87720266 17.61116586 114.9375 21.9375 C114.96328125 23.05511719 114.9890625 24.17273438 115.015625 25.32421875 C114.6875 28.25 114.6875 28.25 113.25390625 30.046875 C112.73699219 30.44390625 112.22007812 30.8409375 111.6875 31.25 C111.254375 31.765625 110.82125 32.28125 110.375 32.8125 C105.56948776 36.9060845 99.57198722 36.51319391 93.58984375 36.61328125 C90.2752553 36.19840006 88.4418266 35.08305184 85.6875 33.25 C84.965625 33.105625 84.24375 32.96125 83.5 32.8125 C81.6875 32.25 81.6875 32.25 80.5 30.4375 C79.6875 28.25 79.6875 28.25 79.1875 26.125 C78.79472935 24.02320517 78.79472935 24.02320517 76.6875 22.25 C74.45405935 22.44890456 74.45405935 22.44890456 72.0625 23.125 C70.83660156 23.43050781 70.83660156 23.43050781 69.5859375 23.7421875 C68.95945312 23.90976563 68.33296875 24.07734375 67.6875 24.25 C68.1928125 24.57613281 68.698125 24.90226562 69.21875 25.23828125 C70.19328125 25.89376953 70.19328125 25.89376953 71.1875 26.5625 C71.8371875 26.99175781 72.486875 27.42101562 73.15625 27.86328125 C73.6615625 28.32089844 74.166875 28.77851563 74.6875 29.25 C74.6875 30.24 74.6875 31.23 74.6875 32.25 C73.945 32.53875 73.2025 32.8275 72.4375 33.125 C69.7940143 34.13318003 69.7940143 34.13318003 67.8828125 35.296875 C63.4315596 37.22944743 58.42995085 36.78400251 53.6875 36.25 C50.1875 34.375 50.1875 34.375 47.6875 32.25 C46.9965625 31.99992187 46.305625 31.74984375 45.59375 31.4921875 C43.6875 30.25 43.6875 30.25 43 27.5 C42.79166667 25.33333333 42.58333333 23.16666667 42.375 21 C41.98039295 18.11126124 41.98039295 18.11126124 39.625 16.875 C38.985625 16.66875 38.34625 16.4625 37.6875 16.25 C36.51673301 20.23060777 35.43000597 24.16621717 34.6875 28.25 C34.0275 28.25 33.3675 28.25 32.6875 28.25 C32.6875 29.9 32.6875 31.55 32.6875 33.25 C32.0275 33.25 31.3675 33.25 30.6875 33.25 C30.0275 34.24 29.3675 35.23 28.6875 36.25 C25.3125 36.6875 25.3125 36.6875 21.6875 36.25 C18.63249122 33.85553366 16.12226614 31.04341035 15.1875 27.1875 C14.80552369 25.02936701 14.80552369 25.02936701 12.6875 23.25 C12.708125 22.30125 12.72875 21.3525 12.75 20.375 C12.66042065 15.89603228 10.73439048 14.29689048 7.6875 11.25 C7.3575 19.17 7.0275 27.09 6.6875 35.25 C3.19365721 36.41461426 0.35094611 36.38568319 -3.3125 36.25 C-5.0454298 34.5170702 -4.44070046 32.28785664 -4.45144653 29.97851562 C-4.4494223 29.24310547 -4.44739807 28.50769531 -4.4453125 27.75 C-4.44626923 26.99912109 -4.44722595 26.24824219 -4.44821167 25.47460938 C-4.44889338 23.88411373 -4.44703972 22.29361533 -4.44287109 20.703125 C-4.43752267 18.26035345 -4.44281634 15.81776579 -4.44921875 13.375 C-4.44855797 11.83333293 -4.4472768 10.29166597 -4.4453125 8.75 C-4.44733673 8.01458984 -4.44936096 7.27917969 -4.45144653 6.52148438 C-4.42265327 0.33378515 -4.42265327 0.33378515 0 0 Z M55.6875 10.25 C55.6875 10.58 55.6875 10.91 55.6875 11.25 C57.9975 11.25 60.3075 11.25 62.6875 11.25 C62.6875 10.92 62.6875 10.59 62.6875 10.25 C60.3775 10.25 58.0675 10.25 55.6875 10.25 Z M89.6875 13.25 C88.44888461 14.27390347 88.44888461 14.27390347 88.5 16.4375 C88.76165564 20.36233457 89.93399418 23.74298836 91.6875 27.25 C96.61575764 26.6272572 100.48951641 26.1205059 103.75 22.125 C104.389375 21.17625 105.02875 20.2275 105.6875 19.25 C104.6975 19.25 103.7075 19.25 102.6875 19.25 C102.6875 17.93 102.6875 16.61 102.6875 15.25 C102.0275 15.25 101.3675 15.25 100.6875 15.25 C100.6875 14.59 100.6875 13.93 100.6875 13.25 C101.3475 12.92 102.0075 12.59 102.6875 12.25 C97.43141257 9.35008969 94.84310309 10.4480418 89.6875 13.25 Z M55.6875 12.25 C55.3575 12.91 55.0275 13.57 54.6875 14.25 C57.6575 14.25 60.6275 14.25 63.6875 14.25 C63.3575 13.59 63.0275 12.93 62.6875 12.25 C60.3775 12.25 58.0675 12.25 55.6875 12.25 Z M78.6875 12.25 C79.6875 15.25 79.6875 15.25 79.6875 15.25 Z M20.6875 13.25 C21.6875 15.25 21.6875 15.25 21.6875 15.25 Z M51.6875 15.25 C51.6875 15.58 51.6875 15.91 51.6875 16.25 C56.6375 16.25 61.5875 16.25 66.6875 16.25 C66.6875 15.92 66.6875 15.59 66.6875 15.25 C61.7375 15.25 56.7875 15.25 51.6875 15.25 Z M21.6875 16.25 C22.6875 18.25 22.6875 18.25 22.6875 18.25 Z M22.6875 18.25 C23.6875 20.25 23.6875 20.25 23.6875 20.25 Z M13.6875 20.25 C14.6875 22.25 14.6875 22.25 14.6875 22.25 Z M24.6875 22.25 C25.6875 24.25 25.6875 24.25 25.6875 24.25 Z M33.6875 23.25 C34.6875 25.25 34.6875 25.25 34.6875 25.25 Z M51.6875 23.25 C52.0175 23.91 52.3475 24.57 52.6875 25.25 C53.0175 24.59 53.3475 23.93 53.6875 23.25 C53.0275 23.25 52.3675 23.25 51.6875 23.25 Z M54.6875 23.25 C58.6875 24.25 58.6875 24.25 58.6875 24.25 Z M56.6875 25.25 C56.3575 26.24 56.0275 27.23 55.6875 28.25 C57.14542884 28.30399736 58.60392712 28.34279177 60.0625 28.375 C61.28066406 28.40980469 61.28066406 28.40980469 62.5234375 28.4453125 C64.90092243 28.46370051 64.90092243 28.46370051 66.6875 26.25 C64.40044169 25.10647084 63.09485238 25.14665561 60.5625 25.1875 C58.644375 25.2184375 58.644375 25.2184375 56.6875 25.25 Z M94.6875 27.25 C98.6875 28.25 98.6875 28.25 98.6875 28.25 Z " fill="#EFF4F5" transform="translate(170.3125,203.75)"/>
<path d="M0 0 C10.40949292 0.05178852 10.40949292 0.05178852 15.390625 2.265625 C15.720625 1.935625 16.050625 1.605625 16.390625 1.265625 C18.07671466 1.19356989 19.76563159 1.18176432 21.453125 1.203125 C22.37222656 1.21214844 23.29132813 1.22117188 24.23828125 1.23046875 C24.94855469 1.24207031 25.65882813 1.25367188 26.390625 1.265625 C27.65171377 7.82918643 27.37437212 14.11445709 27.140625 20.765625 C27.10001953 22.58126953 27.10001953 22.58126953 27.05859375 24.43359375 C27.01863281 25.60535156 26.97867188 26.77710938 26.9375 27.984375 C26.88867676 29.57668945 26.88867676 29.57668945 26.83886719 31.20117188 C26.32229356 34.7327798 25.20217548 37.20438339 23.390625 40.265625 C21.453125 41.453125 21.453125 41.453125 19.390625 42.265625 C18.04273153 43.24591116 16.70849785 44.24533635 15.390625 45.265625 C14.400625 45.925625 13.410625 46.585625 12.390625 47.265625 C12.390625 47.595625 12.390625 47.925625 12.390625 48.265625 C10.45557477 48.51463146 8.51736566 48.73918742 6.578125 48.953125 C5.49917969 49.08074219 4.42023438 49.20835937 3.30859375 49.33984375 C0.390625 49.265625 0.390625 49.265625 -1.33203125 47.90234375 C-1.75355469 47.36222656 -2.17507812 46.82210937 -2.609375 46.265625 C-3.475625 45.646875 -4.341875 45.028125 -5.234375 44.390625 C-7.609375 42.265625 -7.609375 42.265625 -8.484375 39.703125 C-8.609375 37.265625 -8.609375 37.265625 -7.609375 34.265625 C-6.289375 34.265625 -4.969375 34.265625 -3.609375 34.265625 C-3.114375 33.770625 -3.114375 33.770625 -2.609375 33.265625 C-3.599375 32.935625 -4.589375 32.605625 -5.609375 32.265625 C-6.796875 29.703125 -6.796875 29.703125 -7.609375 27.265625 C-8.599375 27.265625 -9.589375 27.265625 -10.609375 27.265625 C-11.46447343 22.94444055 -11.69466311 19.03611638 -11.421875 14.640625 C-11.36644531 13.53460938 -11.31101562 12.42859375 -11.25390625 11.2890625 C-10.49230392 7.71645519 -9.37515576 6.56783798 -6.609375 4.265625 C-5.949375 3.605625 -5.289375 2.945625 -4.609375 2.265625 C-2.609375 0.265625 -2.609375 0.265625 0 0 Z M2.390625 10.265625 C0.22340718 13.51645173 0.11841482 14.55794653 0.140625 18.328125 C0.13546875 19.20597656 0.1303125 20.08382812 0.125 20.98828125 C0.17503148 23.46364828 0.17503148 23.46364828 2.390625 25.265625 C4.49298929 25.65972031 4.49298929 25.65972031 6.828125 25.640625 C8.00181641 25.68316406 8.00181641 25.68316406 9.19921875 25.7265625 C11.51749322 25.43605603 11.51749322 25.43605603 13.18359375 23.59375 C14.70350421 20.66214277 14.60886027 18.90576048 14.265625 15.640625 C14.18054688 14.67898437 14.09546875 13.71734375 14.0078125 12.7265625 C13.59628338 9.91731059 13.59628338 9.91731059 10.390625 8.265625 C5.88043137 7.75276388 5.88043137 7.75276388 2.390625 10.265625 Z M24.390625 9.265625 C24.390625 16.855625 24.390625 24.445625 24.390625 32.265625 C24.720625 32.265625 25.050625 32.265625 25.390625 32.265625 C25.390625 24.675625 25.390625 17.085625 25.390625 9.265625 C25.060625 9.265625 24.730625 9.265625 24.390625 9.265625 Z M-1.609375 14.265625 C-0.609375 18.265625 -0.609375 18.265625 -0.609375 18.265625 Z M14.390625 15.265625 C14.390625 17.245625 14.390625 19.225625 14.390625 21.265625 C14.720625 21.265625 15.050625 21.265625 15.390625 21.265625 C15.390625 19.285625 15.390625 17.305625 15.390625 15.265625 C15.060625 15.265625 14.730625 15.265625 14.390625 15.265625 Z M6.390625 34.265625 C7.710625 35.255625 9.030625 36.245625 10.390625 37.265625 C11.710625 36.605625 13.030625 35.945625 14.390625 35.265625 C14.390625 33.945625 14.390625 32.625625 14.390625 31.265625 C11.78122643 31.265625 8.7504261 33.23589361 6.390625 34.265625 Z M-0.609375 33.265625 C0.875625 34.255625 0.875625 34.255625 2.390625 35.265625 C3.380625 34.935625 4.370625 34.605625 5.390625 34.265625 C2.420625 33.770625 2.420625 33.770625 -0.609375 33.265625 Z M23.390625 35.265625 C24.390625 37.265625 24.390625 37.265625 24.390625 37.265625 Z M1.390625 37.265625 C5.390625 38.265625 5.390625 38.265625 5.390625 38.265625 Z M6.390625 37.265625 C10.390625 38.265625 10.390625 38.265625 10.390625 38.265625 Z M0.390625 46.265625 C0.390625 46.595625 0.390625 46.925625 0.390625 47.265625 C3.030625 47.265625 5.670625 47.265625 8.390625 47.265625 C8.390625 46.935625 8.390625 46.605625 8.390625 46.265625 C5.750625 46.265625 3.110625 46.265625 0.390625 46.265625 Z " fill="#F9FBFC" transform="translate(135.609375,205.734375)"/>
<path d="M0 0 C3.6875 0.25 3.6875 0.25 5.5625 1.75 C8.96074167 4.14875882 12.65387297 3.48270925 16.6875 3.25 C17.6775 5.56 18.6675 7.87 19.6875 10.25 C20.3475 10.25 21.0075 10.25 21.6875 10.25 C23.0075 13.22 24.3275 16.19 25.6875 19.25 C26.80535113 17.13214887 26.80535113 17.13214887 27.6875 14.25 C28.3475 13.26 29.0075 12.27 29.6875 11.25 C30.36927416 9.92432801 31.03941436 8.59246312 31.6875 7.25 C32.3475 7.25 33.0075 7.25 33.6875 7.25 C34.0175 6.26 34.3475 5.27 34.6875 4.25 C36.6675 4.25 38.6475 4.25 40.6875 4.25 C36.88215811 14.3332792 32.82298026 24.2986282 28.6875 34.25 C20.70135557 34.37086132 20.70135557 34.37086132 17.6875 32.25 C15.6875 29.25 15.6875 29.25 15.1875 27.1875 C14.80552369 25.02936701 14.80552369 25.02936701 12.6875 23.25 C12.708125 22.30125 12.72875 21.3525 12.75 20.375 C12.66042065 15.89603228 10.73439048 14.29689048 7.6875 11.25 C7.3575 19.17 7.0275 27.09 6.6875 35.25 C3.19365721 36.41461426 0.35094611 36.38568319 -3.3125 36.25 C-5.0454298 34.5170702 -4.44070046 32.28785664 -4.45144653 29.97851562 C-4.4494223 29.24310547 -4.44739807 28.50769531 -4.4453125 27.75 C-4.44626923 26.99912109 -4.44722595 26.24824219 -4.44821167 25.47460938 C-4.44889338 23.88411373 -4.44703972 22.29361533 -4.44287109 20.703125 C-4.43752267 18.26035345 -4.44281634 15.81776579 -4.44921875 13.375 C-4.44855797 11.83333293 -4.4472768 10.29166597 -4.4453125 8.75 C-4.44733673 8.01458984 -4.44936096 7.27917969 -4.45144653 6.52148438 C-4.42265327 0.33378515 -4.42265327 0.33378515 0 0 Z M20.6875 13.25 C21.6875 15.25 21.6875 15.25 21.6875 15.25 Z M21.6875 16.25 C22.6875 18.25 22.6875 18.25 22.6875 18.25 Z M22.6875 18.25 C23.6875 20.25 23.6875 20.25 23.6875 20.25 Z M13.6875 20.25 C14.6875 22.25 14.6875 22.25 14.6875 22.25 Z M24.6875 22.25 C25.6875 24.25 25.6875 24.25 25.6875 24.25 Z " fill="#F9FBFE" transform="translate(170.3125,203.75)"/>
<path d="M0 0 C2.82162142 2.15334266 3.83513467 3.23502487 4.5859375 6.71875 C5.00831601 10.06590046 5.2029886 13.31443173 5.25 16.6875 C5.27578125 17.80511719 5.3015625 18.92273438 5.328125 20.07421875 C5 23 5 23 3.56640625 24.796875 C3.04949219 25.19390625 2.53257812 25.5909375 2 26 C1.566875 26.515625 1.13375 27.03125 0.6875 27.5625 C-4.11801224 31.6560845 -10.11551278 31.26319391 -16.09765625 31.36328125 C-19.4122447 30.94840006 -21.2456734 29.83305184 -24 28 C-24.721875 27.855625 -25.44375 27.71125 -26.1875 27.5625 C-28 27 -28 27 -29.1875 25.1875 C-30.78663304 20.88214181 -31.24154349 16.83509293 -31.5625 12.25 C-31.64628906 11.07953125 -31.73007813 9.9090625 -31.81640625 8.703125 C-31.87699219 7.81109375 -31.93757812 6.9190625 -32 6 C-31.175 5.566875 -30.35 5.13375 -29.5 4.6875 C-28.2625 3.8521875 -28.2625 3.8521875 -27 3 C-27 2.01 -27 1.02 -27 0 C-18.8023918 -4.55422678 -8.10292379 -4.63024216 0 0 Z M-20 8 C-21.23861539 9.02390347 -21.23861539 9.02390347 -21.1875 11.1875 C-20.92584436 15.11233457 -19.75350582 18.49298836 -18 22 C-13.07174236 21.3772572 -9.19798359 20.8705059 -5.9375 16.875 C-5.298125 15.92625 -4.65875 14.9775 -4 14 C-4.99 14 -5.98 14 -7 14 C-7 12.68 -7 11.36 -7 10 C-7.66 10 -8.32 10 -9 10 C-9 9.34 -9 8.68 -9 8 C-8.34 7.67 -7.68 7.34 -7 7 C-12.25608743 4.10008969 -14.84439691 5.1980418 -20 8 Z M-31 7 C-30 10 -30 10 -30 10 Z M-15 22 C-11 23 -11 23 -11 23 Z " fill="#34AF8A" transform="translate(280,209)"/>
<path d="M0 0 C0.763125 0.2784375 1.52625 0.556875 2.3125 0.84375 C2.869375 1.0603125 3.42625 1.276875 4 1.5 C4 2.16 4 2.82 4 3.5 C5.093125 4.139375 6.18625 4.77875 7.3125 5.4375 C7.92738281 5.79714844 8.54226562 6.15679687 9.17578125 6.52734375 C11.13819555 7.63901247 11.13819555 7.63901247 14 8.5 C16.03960471 11.4025144 17.35341074 14.00841798 18 17.5 C19.32 16.84 20.64 16.18 22 15.5 C22 14.84 22 14.18 22 13.5 C22.73734375 13.39300781 23.4746875 13.28601563 24.234375 13.17578125 C27.18618055 12.45450673 28.81436482 11.46912203 31.25 9.6875 C35.61352983 6.64402961 40.07460806 4.47947194 45 2.5 C45 1.84 45 1.18 45 0.5 C53.91 0.5 62.82 0.5 72 0.5 C72.495 2.48 72.495 2.48 73 4.5 C71.42679728 6.07320272 69.70811236 5.82942336 67.52734375 6.03515625 C66.62822266 6.12216797 65.72910156 6.20917969 64.80273438 6.29882812 C63.85720703 6.38583984 62.91167969 6.47285156 61.9375 6.5625 C60.5134082 6.69881836 60.5134082 6.69881836 59.06054688 6.83789062 C56.70737865 7.06256498 54.35389381 7.28308182 52 7.5 C52.495 8.49 52.495 8.49 53 9.5 C49.39758053 10.01463135 45.80310096 10.52259497 42.1875 10.9375 C38.91722344 11.20046833 38.91722344 11.20046833 37 13.5 C36.01 13.83 35.02 14.16 34 14.5 C32.41666667 15.91666667 32.41666667 15.91666667 31 17.5 C29.53091759 18.96908241 28.02516226 20.40172491 26.5 21.8125 C24.1052266 24.38688141 23.04014625 26.19044374 22 29.5 C21.34 29.5 20.68 29.5 20 29.5 C20 30.82 20 32.14 20 33.5 C18.00045254 33.54254356 15.99958364 33.54080783 14 33.5 C12.33657163 31.83657163 12.63951903 29.7174291 12.4375 27.4375 C12.35371094 26.51839844 12.26992187 25.59929687 12.18359375 24.65234375 C12.12300781 23.94207031 12.06242187 23.23179687 12 22.5 C11.34 22.5 10.68 22.5 10 22.5 C8.88282416 19.89325638 8.020784 17.78404794 7.8125 14.9375 C6.77651609 11.82954826 5.20123893 10.79004505 2.3203125 9.34375 C-5.9838141 6.3240676 -15.24231862 6.22180077 -23.99951172 5.92895508 C-28.67398282 5.73515721 -32.58660534 4.92887973 -37 3.5 C-36.34 2.18 -35.68 0.86 -35 -0.5 C-31.50014278 -0.66975572 -28.00009554 -0.83523723 -24.5 -1 C-23.51773438 -1.04769531 -22.53546875 -1.09539062 -21.5234375 -1.14453125 C-5.09634387 -1.91112895 -5.09634387 -1.91112895 0 0 Z M-13 -0.5 C-13 -0.17 -13 0.16 -13 0.5 C-11.02 0.5 -9.04 0.5 -7 0.5 C-7 0.17 -7 -0.16 -7 -0.5 C-8.98 -0.5 -10.96 -0.5 -13 -0.5 Z M-5 0.5 C-1 1.5 -1 1.5 -1 1.5 Z M46 7.5 C50 8.5 50 8.5 50 8.5 Z " fill="#79BFA8" transform="translate(197,249.5)"/>
<path d="M0 0 C1.70254189 0.98305766 3.35136764 2.05768389 4.9921875 3.140625 C5.6521875 3.470625 6.3121875 3.800625 6.9921875 4.140625 C7.4871875 18.495625 7.4871875 18.495625 7.9921875 33.140625 C4.0321875 33.140625 0.0721875 33.140625 -4.0078125 33.140625 C-4.0078125 25.220625 -4.0078125 17.300625 -4.0078125 9.140625 C-6.9778125 9.140625 -9.9478125 9.140625 -13.0078125 9.140625 C-12.99621094 10.29820312 -12.98460937 11.45578125 -12.97265625 12.6484375 C-12.96327173 14.18749838 -12.95417224 15.72656101 -12.9453125 17.265625 C-12.93693359 18.02617187 -12.92855469 18.78671875 -12.91992188 19.5703125 C-12.90134741 23.8795894 -13.14663985 27.89578974 -14.0078125 32.140625 C-17.54751968 33.32052739 -20.28965149 33.33631768 -24.0078125 33.140625 C-25.3278125 32.480625 -26.6478125 31.820625 -28.0078125 31.140625 C-27.6778125 20.910625 -27.3478125 10.680625 -27.0078125 0.140625 C-22.3878125 0.140625 -17.7678125 0.140625 -13.0078125 0.140625 C-8.62943439 -1.31883437 -4.29956406 -1.84028034 0 0 Z M-26.0078125 2.140625 C-26.0078125 6.760625 -26.0078125 11.380625 -26.0078125 16.140625 C-25.6778125 16.140625 -25.3478125 16.140625 -25.0078125 16.140625 C-25.0078125 11.520625 -25.0078125 6.900625 -25.0078125 2.140625 C-25.3378125 2.140625 -25.6678125 2.140625 -26.0078125 2.140625 Z M-11.0078125 7.140625 C-11.0078125 7.470625 -11.0078125 7.800625 -11.0078125 8.140625 C-9.3578125 8.140625 -7.7078125 8.140625 -6.0078125 8.140625 C-6.0078125 7.810625 -6.0078125 7.480625 -6.0078125 7.140625 C-7.6578125 7.140625 -9.3078125 7.140625 -11.0078125 7.140625 Z M-3.0078125 12.140625 C-3.0078125 18.410625 -3.0078125 24.680625 -3.0078125 31.140625 C-2.6778125 31.140625 -2.3478125 31.140625 -2.0078125 31.140625 C-2.0078125 24.870625 -2.0078125 18.600625 -2.0078125 12.140625 C-2.3378125 12.140625 -2.6678125 12.140625 -3.0078125 12.140625 Z M-16.0078125 14.140625 C-16.0078125 18.760625 -16.0078125 23.380625 -16.0078125 28.140625 C-15.6778125 28.140625 -15.3478125 28.140625 -15.0078125 28.140625 C-15.0078125 23.520625 -15.0078125 18.900625 -15.0078125 14.140625 C-15.3378125 14.140625 -15.6678125 14.140625 -16.0078125 14.140625 Z " fill="#F3F7F8" transform="translate(315.0078125,206.859375)"/>
<path d="M0 0 C7.42857143 -0.28571429 7.42857143 -0.28571429 11 2 C11 1.34 11 0.68 11 0 C13 1 13 1 13.64453125 2.7421875 C14.04963538 5.31526646 13.94656294 7.5343706 13.6875 10.125 C13.60886719 10.99382812 13.53023438 11.86265625 13.44921875 12.7578125 C12.5764297 17.11416826 7.41886756 20.34559972 4 23 C0.5625 24.875 0.5625 24.875 -2 26 C-2 26.66 -2 27.32 -2 28 C-5.47823115 29.15941038 -7.45895578 28.70820884 -11 28 C-11 27.34 -11 26.68 -11 26 C-13.65228812 24.92474806 -16.28368454 23.90543849 -19 23 C-21.83537041 19.32451983 -22.58802642 16.60620699 -22 12 C-19.85516011 7.57626774 -15.25681385 5.1565711 -11 3 C-7.625 2.0625 -7.625 2.0625 -5 2 C-4.34 2.66 -3.68 3.32 -3 4 C-1.97895449 3.02149805 -0.9793879 2.02019573 0 1 C0 0.67 0 0.34 0 0 Z M-5 10 C-4 12 -4 12 -4 12 Z M-20 11 C-19 13 -19 13 -19 13 Z M-21 13 C-21 14.65 -21 16.3 -21 18 C-20.67 18 -20.34 18 -20 18 C-20 16.35 -20 14.7 -20 13 C-20.33 13 -20.66 13 -21 13 Z M-7 13 C-7.33 13.66 -7.66 14.32 -8 15 C-7.01 14.67 -6.02 14.34 -5 14 C-5.66 13.67 -6.32 13.34 -7 13 Z M-9 15 C-10.485 16.98 -10.485 16.98 -12 19 C-10.35 18.34 -8.7 17.68 -7 17 C-7.66 16.34 -8.32 15.68 -9 15 Z M-20 18 C-19 20 -19 20 -19 20 Z " fill="#30AA87" transform="translate(269,173)"/>
<path d="M0 0 C1.98 0 3.96 0 6 0 C6.2266333 0.60062256 6.4532666 1.20124512 6.68676758 1.82006836 C7.71699562 4.53048987 8.76447067 7.2339147 9.8125 9.9375 C10.34713867 11.35579102 10.34713867 11.35579102 10.89257812 12.80273438 C11.24384766 13.70185547 11.59511719 14.60097656 11.95703125 15.52734375 C12.27647705 16.35999756 12.59592285 17.19265137 12.92504883 18.05053711 C13.90250089 20.34420093 13.90250089 20.34420093 17 21 C17.16435547 20.18208984 17.16435547 20.18208984 17.33203125 19.34765625 C18.51009937 13.74464935 20.087035 8.3945613 22 3 C22.66 3 23.32 3 24 3 C24.33 2.01 24.66 1.02 25 0 C26.98 0 28.96 0 31 0 C27.19465811 10.0832792 23.13548026 20.0486282 19 30 C11.01385557 30.12086132 11.01385557 30.12086132 8 28 C6 25 6 25 5.5 22.9375 C5.11802369 20.77936701 5.11802369 20.77936701 3 19 C3 17 3 15 3 13 C2.35902703 10.99161804 1.69100553 8.99172182 1 7 C0.62468554 4.67305036 0.28082798 2.34023315 0 0 Z M4 16 C5 18 5 18 5 18 Z " fill="#F6F9FA" transform="translate(180,208)"/>
<path d="M0 0 C3.79736879 1.65255864 5.55769033 4.09527567 7.375 7.8125 C8.37024151 12.8882317 8.66255405 18.01233784 7 23 C6.01 23 5.02 23 4 23 C3.99742187 22.10796875 3.99484375 21.2159375 3.9921875 20.296875 C3.96956631 13.10042376 3.96956631 13.10042376 0.4375 7.1875 C-3.95713083 5.6693548 -6.36484064 5.33783438 -11 6 C-13.97717008 7.98478006 -15.62826444 9.36831119 -16.44140625 12.9375 C-16.64549708 16.41362777 -16.14059106 18.69203863 -14.6875 21.875 C-10.59321701 25.11234004 -6.09104601 25.41189641 -1 26 C-0.67 26.99 -0.34 27.98 0 29 C-5.21044873 30.73681624 -9.35173534 30.55158047 -14.25 28.125 C-20.81183179 24.58161083 -20.81183179 24.58161083 -21.6875 21.875 C-22.51354226 14.27541118 -22.45943094 10.26730835 -18 4 C-12.56575571 -1.25436512 -7.21509485 -1.04238179 0 0 Z " fill="#21BD8B" transform="translate(274,208)"/>
<path d="M0 0 C0.763125 0.2784375 1.52625 0.556875 2.3125 0.84375 C2.869375 1.0603125 3.42625 1.276875 4 1.5 C4 2.16 4 2.82 4 3.5 C5.093125 4.139375 6.18625 4.77875 7.3125 5.4375 C7.92738281 5.79714844 8.54226562 6.15679687 9.17578125 6.52734375 C11.13819555 7.63901247 11.13819555 7.63901247 14 8.5 C15.75 10.9375 15.75 10.9375 17 13.5 C16.67 14.16 16.34 14.82 16 15.5 C15.34 15.17 14.68 14.84 14 14.5 C14.495 16.48 14.495 16.48 15 18.5 C14.34 18.5 13.68 18.5 13 18.5 C12.34 17.84 11.68 17.18 11 16.5 C10.34 17.49 9.68 18.48 9 19.5 C8.814375 18.4275 8.62875 17.355 8.4375 16.25 C7.476857 13.03703862 6.95380211 12.46201507 4.1875 10.1875 C-4.33164536 6.09411188 -14.70676621 6.23970996 -23.99951172 5.92895508 C-28.67398282 5.73515721 -32.58660534 4.92887973 -37 3.5 C-36.34 2.18 -35.68 0.86 -35 -0.5 C-31.50014278 -0.66975572 -28.00009554 -0.83523723 -24.5 -1 C-23.51773438 -1.04769531 -22.53546875 -1.09539062 -21.5234375 -1.14453125 C-5.09634387 -1.91112895 -5.09634387 -1.91112895 0 0 Z M-13 -0.5 C-13 -0.17 -13 0.16 -13 0.5 C-11.02 0.5 -9.04 0.5 -7 0.5 C-7 0.17 -7 -0.16 -7 -0.5 C-8.98 -0.5 -10.96 -0.5 -13 -0.5 Z M-5 0.5 C-1 1.5 -1 1.5 -1 1.5 Z " fill="#7EBFAA" transform="translate(197,249.5)"/>
<path d="M0 0 C1.11375 0.495 1.11375 0.495 2.25 1 C2.58 0.67 2.91 0.34 3.25 0 C4.93608966 -0.07205511 6.62500659 -0.08386068 8.3125 -0.0625 C9.23160156 -0.05347656 10.15070313 -0.04445312 11.09765625 -0.03515625 C11.80792969 -0.02355469 12.51820313 -0.01195312 13.25 0 C14.51108877 6.56356143 14.23374712 12.84883209 14 19.5 C13.97292969 20.71042969 13.94585937 21.92085937 13.91796875 23.16796875 C13.87800781 24.33972656 13.83804688 25.51148438 13.796875 26.71875 C13.76432617 27.78029297 13.73177734 28.84183594 13.69824219 29.93554688 C13.18166814 33.4671577 12.05955047 35.93768381 10.25 39 C8.3125 40.25 8.3125 40.25 6.25 41 C5.5075 41.37125 4.765 41.7425 4 42.125 C3.4225 42.41375 2.845 42.7025 2.25 43 C3.51953125 41.53515625 4.7890625 40.0703125 6.05859375 38.60546875 C8.77169649 34.94945162 8.46357735 30.83432823 8.56640625 26.48828125 C8.58718735 25.76005661 8.60796844 25.03183197 8.62937927 24.28153992 C8.69468746 21.95862125 8.75367237 19.63559094 8.8125 17.3125 C8.85570305 15.73631665 8.89931792 14.16014452 8.94335938 12.58398438 C9.0503496 8.72277025 9.15166961 4.86144397 9.25 1 C7.6 1 5.95 1 4.25 1 C4.25 2.32 4.25 3.64 4.25 5 C3.26 5.495 3.26 5.495 2.25 6 C1.59 5.67 0.93 5.34 0.25 5 C0.25 5.99 0.25 6.98 0.25 8 C-0.67232422 7.93039063 -0.67232422 7.93039063 -1.61328125 7.859375 C-2.42152344 7.82328125 -3.22976562 7.7871875 -4.0625 7.75 C-4.86300781 7.70359375 -5.66351563 7.6571875 -6.48828125 7.609375 C-8.87584707 7.80588509 -8.87584707 7.80588509 -10.52734375 9.69140625 C-11.96847521 12.41252028 -12.09042299 14.12668185 -12 17.1875 C-11.98453125 18.06792969 -11.9690625 18.94835937 -11.953125 19.85546875 C-11.98164091 21.98078543 -11.98164091 21.98078543 -10.75 23 C-8.68335994 23.23790731 -8.68335994 23.23790731 -6.3125 23.25 C-5.10787109 23.28867188 -5.10787109 23.28867188 -3.87890625 23.328125 C-3.17636719 23.21984375 -2.47382813 23.1115625 -1.75 23 C0.55143236 19.54785147 0.38833854 18.76520676 -0.125 14.8125 C-0.23585937 13.91144531 -0.34671875 13.01039063 -0.4609375 12.08203125 C-0.55632812 11.39496094 -0.65171875 10.70789063 -0.75 10 C3.125 10.875 3.125 10.875 4.25 12 C4.63301738 15.25564772 4.92642942 17.86168034 3.203125 20.76171875 C0.26878611 24.32607746 -1.42110283 25.84666571 -6 26.375 C-10.85423522 25.88957648 -12.55346282 24.65318534 -15.75 21 C-17.17229465 17.05889304 -17.17828638 14.07071596 -15.625 10.1875 C-11.93776532 5.88572621 -8.29768243 4.64507935 -2.75 4 C-2.75 3.34 -2.75 2.68 -2.75 2 C-4.35407328 1.97291433 -5.9582785 1.95356517 -7.5625 1.9375 C-8.45582031 1.92589844 -9.34914062 1.91429687 -10.26953125 1.90234375 C-12.88413791 1.88990033 -12.88413791 1.88990033 -15.75 3 C-15.75 2.34 -15.75 1.68 -15.75 1 C-16.41 0.67 -17.07 0.34 -17.75 0 C-12.71200818 -2.51899591 -5.25704417 -1.40187844 0 0 Z M11.25 8 C11.25 15.59 11.25 23.18 11.25 31 C11.58 31 11.91 31 12.25 31 C12.25 23.41 12.25 15.82 12.25 8 C11.92 8 11.59 8 11.25 8 Z M-14.75 13 C-13.75 17 -13.75 17 -13.75 17 Z M1.25 14 C1.25 15.98 1.25 17.96 1.25 20 C1.58 20 1.91 20 2.25 20 C2.25 18.02 2.25 16.04 2.25 14 C1.92 14 1.59 14 1.25 14 Z M10.25 34 C11.25 36 11.25 36 11.25 36 Z " fill="#E6EBED" transform="translate(148.75,207)"/>
<path d="M0 0 C0.33 1.32 0.66 2.64 1 4 C0.38511719 4.13277344 -0.22976562 4.26554688 -0.86328125 4.40234375 C-2.07564453 4.66724609 -2.07564453 4.66724609 -3.3125 4.9375 C-4.11300781 5.11152344 -4.91351563 5.28554687 -5.73828125 5.46484375 C-8.145401 5.99886159 -8.145401 5.99886159 -11 7 C-13.24105115 10.69773439 -13.28747085 13.98233617 -12.58984375 18.12890625 C-12.0438335 20.25357961 -12.0438335 20.25357961 -10 22.5 C-5.9251683 24.53741585 -2.47062807 24.3506375 2 24 C2 25.65 2 27.3 2 29 C-2.72185079 30.57395026 -6.53596719 30.57413051 -11.1875 28.75 C-15.10009565 26.31549604 -17.52617368 24.42147895 -19 20 C-19.29358714 14.90539955 -19.20593303 9.97447376 -18 5 C-18 4.01 -18 3.02 -18 2 C-11.84629161 0.176679 -6.40353322 -0.2361959 0 0 Z " fill="#F8FAFB" transform="translate(146,208)"/>
<path d="M0 0 C0.33 0.66 0.66 1.32 1 2 C3.02463255 2.65213292 3.02463255 2.65213292 5 3 C5.061875 3.61875 5.12375 4.2375 5.1875 4.875 C5.81884696 7.16619851 5.81884696 7.16619851 8 8.25 C13.84579995 9.71144999 19.54819911 9.81383272 25 7 C27.5 8.8125 27.5 8.8125 30 11 C30 11.99 30 12.98 30 14 C29.2575 14.28875 28.515 14.5775 27.75 14.875 C25.1065143 15.88318003 25.1065143 15.88318003 23.1953125 17.046875 C18.7440596 18.97944743 13.74245085 18.53400251 9 18 C5.5 16.125 5.5 16.125 3 14 C1.68032357 13.30669173 0.34895359 12.63446546 -1 12 C-1.02687279 10.18757948 -1.04633715 8.37504767 -1.0625 6.5625 C-1.07410156 5.55316406 -1.08570313 4.54382813 -1.09765625 3.50390625 C-1 1 -1 1 0 0 Z " fill="#F8FAFC" transform="translate(215,222)"/>
<path d="M0 0 C0.66 0.66 1.32 1.32 2 2 C1.640625 3.81640625 1.640625 3.81640625 1 6 C0.61200958 10.58873286 0.42960551 14.65957296 2.25 18.9375 C4.90332743 22.0646359 7.10280591 23.7009353 11 25 C16.84492448 25.37392135 16.84492448 25.37392135 22 23 C22.33 22.01 22.66 21.02 23 20 C23.99 20 24.98 20 26 20 C26.43395539 24.33955391 26.25919797 26.54849386 24.0625 30.375 C21.21567541 33.3581514 18.47436578 34.02936291 14.42578125 34.25390625 C10.20802218 33.81243388 6.67836279 32.0261431 3 30 C2.505 32.475 2.505 32.475 2 35 C1.34 35 0.68 35 0 35 C0 32.69 0 30.38 0 28 C0.99 28 1.98 28 3 28 C3.99 27.67 4.98 27.34 6 27 C5.01 26.67 4.02 26.34 3 26 C1.8125 23.4375 1.8125 23.4375 1 21 C0.01 21 -0.98 21 -2 21 C-2.88485781 16.6089763 -3.03195696 12.71251697 -2.6875 8.25 C-2.60886719 7.12078125 -2.53023438 5.9915625 -2.44921875 4.828125 C-2 2 -2 2 0 0 Z M15 28 C16.32 28.99 17.64 29.98 19 31 C20.32 30.34 21.64 29.68 23 29 C23 27.68 23 26.36 23 25 C20.39060143 25 17.3598011 26.97026861 15 28 Z M8 27 C9.485 27.99 9.485 27.99 11 29 C11.99 28.67 12.98 28.34 14 28 C11.03 27.505 11.03 27.505 8 27 Z M10 31 C14 32 14 32 14 32 Z M15 31 C19 32 19 32 19 32 Z " fill="#E3E9EC" transform="translate(127,212)"/>
<path d="M0 0 C2.31 0 4.62 0 7 0 C7.5625 1.9375 7.5625 1.9375 8 4 C6.42679728 5.57320272 4.70811236 5.32942336 2.52734375 5.53515625 C1.62822266 5.62216797 0.72910156 5.70917969 -0.19726562 5.79882812 C-1.14279297 5.88583984 -2.08832031 5.97285156 -3.0625 6.0625 C-4.01189453 6.15337891 -4.96128906 6.24425781 -5.93945312 6.33789062 C-8.29262135 6.56256498 -10.64610619 6.78308182 -13 7 C-12.67 7.66 -12.34 8.32 -12 9 C-16.7680279 9.80966512 -19.60634524 10.19682738 -24 8 C-30.14304753 10.78514769 -35.13670155 14.69508682 -39.625 19.6796875 C-41 21 -41 21 -43 21 C-42.71408975 17.85498724 -41.96340754 16.9662589 -39.59375 14.78125 C-38.5728125 14.0284375 -37.551875 13.275625 -36.5 12.5 C-34.99953125 11.37078125 -34.99953125 11.37078125 -33.46875 10.21875 C-26.04865549 5.23056119 -18.7443438 3.29186739 -9.9375 2.25 C-8.97650391 2.12496094 -8.01550781 1.99992188 -7.02539062 1.87109375 C-4.68486973 1.5683398 -2.34353937 1.2782372 0 1 C0 0.67 0 0.34 0 0 Z M-19 7 C-15 8 -15 8 -15 8 Z " fill="#7DC0A8" transform="translate(262,250)"/>
<path d="M0 0 C3.5622231 -0.11654436 7.12395342 -0.1873639 10.6875 -0.25 C12.19860352 -0.30027344 12.19860352 -0.30027344 13.74023438 -0.3515625 C21.3116249 -0.45151485 21.3116249 -0.45151485 24.90625 1.90625 C25.5971875 2.5971875 26.288125 3.288125 27 4 C29.40741247 5.08014417 29.40741247 5.08014417 31.8125 5.75 C32.60269531 5.99234375 33.39289063 6.2346875 34.20703125 6.484375 C34.79871094 6.65453125 35.39039063 6.8246875 36 7 C36 7.33 36 7.66 36 8 C31.71265327 7.76192039 27.42607786 7.51333817 23.13989258 7.25537109 C21.68432812 7.16920865 20.22859621 7.08582521 18.77270508 7.00537109 C16.66957311 6.88865051 14.56726353 6.76166047 12.46484375 6.6328125 C11.202771 6.55949707 9.94069824 6.48618164 8.64038086 6.41064453 C4.84922088 5.98299172 1.62561208 5.14794028 -2 4 C-1.34 2.68 -0.68 1.36 0 0 Z " fill="#64B098" transform="translate(162,249)"/>
<path d="M0 0 C2.60837957 1.08512666 4.62211845 2.41474564 7 4 C7.78375 4.28875 8.5675 4.5775 9.375 4.875 C11 6 11 6 11.75 9.125 C11.87375 10.548125 11.87375 10.548125 12 12 C12.66 12 13.32 12 14 12 C14 14.64 14 17.28 14 20 C13.28972656 20.12117188 12.57945312 20.24234375 11.84765625 20.3671875 C10.92855469 20.53476563 10.00945312 20.70234375 9.0625 20.875 C7.68771484 21.11863281 7.68771484 21.11863281 6.28515625 21.3671875 C5.53105469 21.57601562 4.77695313 21.78484375 4 22 C3.67 22.66 3.34 23.32 3 24 C1.02 24 -0.96 24 -3 24 C-3 24.33 -3 24.66 -3 25 C-6.375 24.6875 -6.375 24.6875 -10 24 C-10.66 23.01 -11.32 22.02 -12 21 C-12.33 21.66 -12.66 22.32 -13 23 C-13.33 22.01 -13.66 21.02 -14 20 C-13 19 -13 19 -10.77514648 18.88647461 C-9.81680908 18.89171143 -8.85847168 18.89694824 -7.87109375 18.90234375 C-6.31938477 18.90717773 -6.31938477 18.90717773 -4.73632812 18.91210938 C-3.64771484 18.92048828 -2.55910156 18.92886719 -1.4375 18.9375 C0.2012207 18.94426758 0.2012207 18.94426758 1.87304688 18.95117188 C4.58208495 18.96300174 7.29101599 18.97948457 10 19 C9.73023509 17.39516252 9.44622492 15.7927154 9.15625 14.19140625 C8.99962891 13.29881104 8.84300781 12.40621582 8.68164062 11.48657227 C7.71187698 7.9489495 5.85293447 6.21102422 3 4 C-0.00313748 2.49843126 -2.79067522 2.90718796 -6.125 2.9375 C-7.40632812 2.94652344 -8.68765625 2.95554688 -10.0078125 2.96484375 C-10.99523437 2.97644531 -11.98265625 2.98804688 -13 3 C-8.76123328 -0.60725746 -5.40009622 -0.84832593 0 0 Z M-9 21 C-5 22 -5 22 -5 22 Z " fill="#D8E3E3" transform="translate(234,206)"/>
<path d="M0 0 C0.99 0.33 1.98 0.66 3 1 C4.56118428 1.06740865 6.1250252 1.08514456 7.6875 1.0625 C8.49574219 1.05347656 9.30398437 1.04445312 10.13671875 1.03515625 C10.75160156 1.02355469 11.36648437 1.01195312 12 1 C12.99 3.31 13.98 5.62 15 8 C15.66 8 16.32 8 17 8 C18.32 10.97 19.64 13.94 21 17 C22.11785113 14.88214887 22.11785113 14.88214887 23 12 C23 12.66 23 13.32 23 14 C23.66 14 24.32 14 25 14 C24.57742724 15.4835001 24.13643678 16.96176424 23.6875 18.4375 C23.44386719 19.26121094 23.20023438 20.08492187 22.94921875 20.93359375 C22.63597656 21.61550781 22.32273438 22.29742187 22 23 C21.01 23.33 20.02 23.66 19 24 C18.67386719 23.21496094 18.34773438 22.42992187 18.01171875 21.62109375 C17.57472656 20.57050781 17.13773438 19.51992187 16.6875 18.4375 C16.23375 17.344375 15.78 16.25125 15.3125 15.125 C14.29975659 12.71370617 13.25712988 10.32359743 12.1875 7.9375 C11 5 11 5 11 2 C9.02 2 7.04 2 5 2 C5.66 4.31 6.32 6.62 7 9 C6.01 9.66 5.02 10.32 4 11 C3.67 10.34 3.34 9.68 3 9 C2.67 16.92 2.34 24.84 2 33 C1.67 33 1.34 33 1 33 C0.67 22.11 0.34 11.22 0 0 Z M16 11 C17 13 17 13 17 13 Z M17 14 C18 16 18 16 18 16 Z M18 16 C19 18 19 18 19 18 Z M20 20 C21 22 21 22 21 22 Z " fill="#E7EDEF" transform="translate(175,206)"/>
<path d="M0 0 C2.31 0 4.62 0 7 0 C6.54177532 3.46941546 6.10868317 6.67395049 5 10 C4.34 10 3.68 10 3 10 C2.7525 10.61875 2.505 11.2375 2.25 11.875 C0.72778828 14.46275992 -0.16777975 15.05592658 -3 16 C-6.25 16.125 -6.25 16.125 -9 16 C-7.86114632 13.53248369 -6.5871317 11.38735672 -5.0625 9.125 C-3.10984515 6.16643204 -1.52227567 3.19677892 0 0 Z " fill="#19C088" transform="translate(271,179)"/>
<path d="M0 0 C0.99 0.33 1.98 0.66 3 1 C2.21625 1.474375 1.4325 1.94875 0.625 2.4375 C-2.9310969 5.90892793 -3.31347549 9.2045751 -4 14 C-2.35 12.68 -0.7 11.36 1 10 C1.66 10.33 2.32 10.66 3 11 C1.68 13.31 0.36 15.62 -1 18 C0.32 17.67 1.64 17.34 3 17 C3 17.66 3 18.32 3 19 C4.98 19.33 6.96 19.66 9 20 C8.01 20.33 7.02 20.66 6 21 C6 21.66 6 22.32 6 23 C7.65 23 9.3 23 11 23 C8 25 8 25 4.8125 24.625 C3.884375 24.41875 2.95625 24.2125 2 24 C2 23.34 2 22.68 2 22 C-0.65228812 20.92474806 -3.28368454 19.90543849 -6 19 C-8.83537041 15.32451983 -9.58802642 12.60620699 -9 8 C-6.96231337 4.15103637 -3.74460287 2.10633911 0 0 Z M-7 7 C-6 9 -6 9 -6 9 Z M-8 9 C-8 10.65 -8 12.3 -8 14 C-7.67 14 -7.34 14 -7 14 C-7 12.35 -7 10.7 -7 9 C-7.33 9 -7.66 9 -8 9 Z M-7 14 C-6 16 -6 16 -6 16 Z " fill="#41A28A" transform="translate(256,177)"/>
<path d="M0 0 C4.29 0 8.58 0 13 0 C11.515 1.485 11.515 1.485 10 3 C9.67 2.34 9.34 1.68 9 1 C7.35 1 5.7 1 4 1 C4 10.9 4 20.8 4 31 C5.98 31 7.96 31 10 31 C10 31.66 10 32.32 10 33 C5.39790775 33.17700355 3.21629134 33.10814567 -1 31 C-0.67 20.77 -0.34 10.54 0 0 Z M1 2 C1 6.62 1 11.24 1 16 C1.33 16 1.66 16 2 16 C2 11.38 2 6.76 2 2 C1.67 2 1.34 2 1 2 Z " fill="#BDDCD4" transform="translate(288,207)"/>
<path d="M0 0 C3.14164535 0.73692916 6.10596396 1.55562735 9 3 C10.5625 6.1875 10.5625 6.1875 11 9 C7.69551214 11.17152059 4.99550144 12.80509749 1 13 C-2.25 11.875 -2.25 11.875 -5 10 C-5.875 7.3125 -5.875 7.3125 -6 5 C-5.38125 4.9175 -4.7625 4.835 -4.125 4.75 C-1.81418662 4.19884128 -1.81418662 4.19884128 -0.8671875 1.953125 C-0.58101562 1.30859375 -0.29484375 0.6640625 0 0 Z M8 6 C9 9 9 9 9 9 Z " fill="#E1E8EC" transform="translate(168,191)"/>
<path d="M0 0 C1.70254189 0.98305766 3.35136764 2.05768389 4.9921875 3.140625 C5.6521875 3.470625 6.3121875 3.800625 6.9921875 4.140625 C7.4871875 18.495625 7.4871875 18.495625 7.9921875 33.140625 C4.0321875 33.140625 0.0721875 33.140625 -4.0078125 33.140625 C-4.0078125 26.540625 -4.0078125 19.940625 -4.0078125 13.140625 C-3.6778125 13.140625 -3.3478125 13.140625 -3.0078125 13.140625 C-2.6778125 18.420625 -2.3478125 23.700625 -2.0078125 29.140625 C-1.6778125 27.160625 -1.3478125 25.180625 -1.0078125 23.140625 C-0.6778125 23.140625 -0.3478125 23.140625 -0.0078125 23.140625 C-0.0078125 25.780625 -0.0078125 28.420625 -0.0078125 31.140625 C1.9721875 31.140625 3.9521875 31.140625 5.9921875 31.140625 C5.91077975 27.76467695 5.79798549 24.39046587 5.6796875 21.015625 C5.65712891 20.06429687 5.63457031 19.11296875 5.61132812 18.1328125 C5.40743287 12.79446403 5.06257987 8.70610154 1.9921875 4.140625 C-1.2564706 1.97485293 -2.19382597 1.89107034 -5.9453125 1.953125 C-6.79996094 1.95957031 -7.65460938 1.96601563 -8.53515625 1.97265625 C-10.82001918 2.12786811 -12.81404055 2.50438023 -15.0078125 3.140625 C-11.6694569 -1.86690841 -5.38409792 -2.30447771 0 0 Z " fill="#DEE8E9" transform="translate(315.0078125,206.859375)"/>
<path d="M0 0 C2.83555106 2.21912691 4.56493388 3.88125854 5.875 7.25 C5.91625 7.8275 5.9575 8.405 6 9 C5 10 5 10 1.18359375 10.09765625 C-0.39846682 10.09098089 -1.98051159 10.07901875 -3.5625 10.0625 C-4.36880859 10.05798828 -5.17511719 10.05347656 -6.00585938 10.04882812 C-8.00393756 10.03700518 -10.00197783 10.01906914 -12 10 C-12.33 9.01 -12.66 8.02 -13 7 C-9.35884564 0.72214766 -7.32904674 -0.74532679 0 0 Z M-7 2 C-7 2.33 -7 2.66 -7 3 C-4.69 3 -2.38 3 0 3 C0 2.67 0 2.34 0 2 C-2.31 2 -4.62 2 -7 2 Z M-7 4 C-7.33 4.66 -7.66 5.32 -8 6 C-5.03 6 -2.06 6 1 6 C0.67 5.34 0.34 4.68 0 4 C-2.31 4 -4.62 4 -7 4 Z M-11 7 C-11 7.33 -11 7.66 -11 8 C-6.05 8 -1.1 8 4 8 C4 7.67 4 7.34 4 7 C-0.95 7 -5.9 7 -11 7 Z " fill="#CBE0DC" transform="translate(233,212)"/>
<path d="M0 0 C7.42857143 -0.28571429 7.42857143 -0.28571429 11 2 C11 1.34 11 0.68 11 0 C13 1 13 1 13.64453125 2.7421875 C14.04963538 5.31526646 13.94656294 7.5343706 13.6875 10.125 C13.56955078 11.42824219 13.56955078 11.42824219 13.44921875 12.7578125 C13 15 13 15 11 17 C9.19380477 12.53763531 8.88341499 9.68965706 10 5 C6.37 5.33 2.74 5.66 -1 6 C-1.33 8.31 -1.66 10.62 -2 13 C-2.66 12.67 -3.32 12.34 -4 12 C-3.91291331 10.54054712 -3.80473093 9.08234132 -3.6875 7.625 C-3.62949219 6.81289062 -3.57148438 6.00078125 -3.51171875 5.1640625 C-3 3 -3 3 0 1 C0 0.67 0 0.34 0 0 Z " fill="#39AD8C" transform="translate(269,173)"/>
<path d="M0 0 C3 2 3 2 5 4 C4.67 4.66 4.34 5.32 4 6 C3.13375 5.319375 2.2675 4.63875 1.375 3.9375 C-1.81298091 1.70988884 -1.81298091 1.70988884 -5.1875 2.125 C-8.1653346 2.90620618 -8.1653346 2.90620618 -11 5 C-11.55659657 9.00749527 -10.55749912 12.31118629 -9 16 C-6.12262918 18.35099848 -6.12262918 18.35099848 -2.5625 17.8125 C0.83762889 17.03703201 2.47732403 16.32086189 5 14 C4.6875 16.375 4.6875 16.375 4 19 C0.11837845 21.5877477 -2.04405891 21.23288286 -6.546875 20.66015625 C-9.12518246 19.96631236 -10.30436505 19.35753743 -12.125 17.4375 C-14.56425742 12.96552807 -14.71893415 11.03253902 -14 6 C-10.33627548 0.26016492 -6.70916465 -0.98777376 0 0 Z " fill="#2BA781" transform="translate(271,213)"/>
<path d="M0 0 C3.27075883 -0.0580476 6.54138524 -0.09361165 9.8125 -0.125 C10.74126953 -0.14175781 11.67003906 -0.15851563 12.62695312 -0.17578125 C13.51962891 -0.18222656 14.41230469 -0.18867188 15.33203125 -0.1953125 C16.56530151 -0.21102295 16.56530151 -0.21102295 17.82348633 -0.22705078 C20 0 20 0 23 2 C21.68386719 2.09796875 20.36773437 2.1959375 19.01171875 2.296875 C5.55694503 3.396975 -4.79331076 5.10269576 -15.80859375 13.4140625 C-18 15 -18 15 -20.20703125 16.078125 C-22.5379441 17.27659 -23.04648786 18.61621964 -24 21 C-25 18 -25 18 -25 15 C-24.34 15 -23.68 15 -23 15 C-23 14.34 -23 13.68 -23 13 C-22.26265625 12.89300781 -21.5253125 12.78601563 -20.765625 12.67578125 C-17.81381945 11.95450673 -16.18563518 10.96912203 -13.75 9.1875 C-9.38647017 6.14402961 -4.92539194 3.97947194 0 2 C0 1.34 0 0.68 0 0 Z " fill="#72B49F" transform="translate(242,250)"/>
<path d="M0 0 C1.134375 0.020625 2.26875 0.04125 3.4375 0.0625 C3.7675 0.7225 4.0975 1.3825 4.4375 2.0625 C3.7775 2.0625 3.1175 2.0625 2.4375 2.0625 C2.4375 2.7225 2.4375 3.3825 2.4375 4.0625 C1.1175 4.3925 -0.2025 4.7225 -1.5625 5.0625 C-1.8925 14.6325 -2.2225 24.2025 -2.5625 34.0625 C-0.5825 34.0625 1.3975 34.0625 3.4375 34.0625 C3.4375 34.7225 3.4375 35.3825 3.4375 36.0625 C1.10455225 36.10491723 -1.22952567 36.10342937 -3.5625 36.0625 C-5.2954298 34.3295702 -4.69070046 32.10035664 -4.70144653 29.79101562 C-4.6994223 29.05560547 -4.69739807 28.32019531 -4.6953125 27.5625 C-4.69626923 26.81162109 -4.69722595 26.06074219 -4.69821167 25.28710938 C-4.69889338 23.69661373 -4.69703972 22.10611533 -4.69287109 20.515625 C-4.68752267 18.07285345 -4.69281634 15.63026579 -4.69921875 13.1875 C-4.69855797 11.64583293 -4.6972768 10.10416597 -4.6953125 8.5625 C-4.69733673 7.82708984 -4.69936096 7.09167969 -4.70144653 6.33398438 C-4.672354 0.08197112 -4.672354 0.08197112 0 0 Z " fill="#DFE6EA" transform="translate(170.5625,203.9375)"/>
<path d="M0 0 C1.32 0 2.64 0 4 0 C4.43395539 4.33955391 4.25919797 6.54849386 2.0625 10.375 C-0.78432459 13.3581514 -3.52563422 14.02936291 -7.57421875 14.25390625 C-11.79197782 13.81243388 -15.32163721 12.0261431 -19 10 C-19.33 11.65 -19.66 13.3 -20 15 C-20.66 15 -21.32 15 -22 15 C-22 12.69 -22 10.38 -22 8 C-18.15276398 8 -15.40334366 9.29832817 -12 11 C-7.76279307 11.42535668 -4.16919689 11.68440794 -0.4375 9.5 C0.036875 9.005 0.51125 8.51 1 8 C0.67 7.34 0.34 6.68 0 6 C-1.32 6.33 -2.64 6.66 -4 7 C-4 6.34 -4 5.68 -4 5 C-2.68 4.34 -1.36 3.68 0 3 C0 2.01 0 1.02 0 0 Z " fill="#E9ECEE" transform="translate(149,232)"/>
<path d="M0 0 C1.32 0.33 2.64 0.66 4 1 C4.33 2.98 4.66 4.96 5 7 C0.25 10 0.25 10 -2 10 C-2.33 10.99 -2.66 11.98 -3 13 C-3.66 13 -4.32 13 -5 13 C-5.602537 6.97463002 -5.602537 6.97463002 -3.88671875 4.19921875 C-2.65378147 2.74400545 -1.33191067 1.36520843 0 0 Z " fill="#22B989" transform="translate(257,178)"/>
<path d="M0 0 C0 10.56 0 21.12 0 32 C-0.66 31.67 -1.32 31.34 -2 31 C-2 21.43 -2 11.86 -2 2 C-2.66 1.67 -3.32 1.34 -4 1 C-2 0 -2 0 0 0 Z " fill="#F1F6F9" transform="translate(175,207)"/>
<path d="M0 0 C0.56847656 0.32484375 1.13695312 0.6496875 1.72265625 0.984375 C6.30619097 3.02848997 11.38024307 2.52890022 16.0625 1 C16.701875 0.67 17.34125 0.34 18 0 C20.5 1.8125 20.5 1.8125 23 4 C23 4.99 23 5.98 23 7 C21.68 6.67 20.36 6.34 19 6 C19.33 5.34 19.66 4.68 20 4 C18.02 4.66 16.04 5.32 14 6 C14 5.34 14 4.68 14 4 C13.01 4.495 13.01 4.495 12 5 C7.04312447 5.37410381 3.96549128 5.12432647 0 2 C0 1.34 0 0.68 0 0 Z " fill="#DBE5E6" transform="translate(222,229)"/>
<path d="M0 0 C1.22589844 0.01353516 1.22589844 0.01353516 2.4765625 0.02734375 C3.41628906 0.04474609 3.41628906 0.04474609 4.375 0.0625 C4.375 2.0425 4.375 4.0225 4.375 6.0625 C4.045 6.0625 3.715 6.0625 3.375 6.0625 C3.375 4.4125 3.375 2.7625 3.375 1.0625 C0.03542692 0.76107084 0.03542692 0.76107084 -3.625 2.0625 C-5.25091024 4.45718302 -6.34370139 6.88461448 -7.4921875 9.5390625 C-8.79895628 12.45000261 -10.49577121 14.69669023 -12.625 17.0625 C-10.975 17.0625 -9.325 17.0625 -7.625 17.0625 C-7.955 17.7225 -8.285 18.3825 -8.625 19.0625 C-10.935 18.7325 -13.245 18.4025 -15.625 18.0625 C-14.44665442 15.27731953 -13.16727266 13.54755674 -11.125 11.25 C-8.42428548 8.1453663 -7.63915873 5.04112273 -6.625 1.0625 C-4.21954362 -0.14022819 -2.67503047 -0.03821472 0 0 Z " fill="#25B88A" transform="translate(274.625,177.9375)"/>
<path d="M0 0 C2 0.125 2 0.125 4 1 C5.4375 2.75 5.4375 2.75 6 5 C4.8125 7.75 4.8125 7.75 3 10 C2.01 10 1.02 10 0 10 C-2.14915785 6.77626323 -2.38286803 5.73296326 -2 2 C-1.34 1.34 -0.68 0.68 0 0 Z " fill="#F5F9FC" transform="translate(169,194)"/>
<path d="M0 0 C0.66 0.33 1.32 0.66 2 1 C1.67 1.66 1.34 2.32 1 3 C4.96 3.33 8.92 3.66 13 4 C13.33 3.01 13.66 2.02 14 1 C14.5625 2.9375 14.5625 2.9375 15 5 C14 6 14 6 10.18359375 6.09765625 C8.60153318 6.09098089 7.01948841 6.07901875 5.4375 6.0625 C4.63119141 6.05798828 3.82488281 6.05347656 2.99414062 6.04882812 C0.99606244 6.03700518 -1.00197783 6.01906914 -3 6 C-3.33 5.01 -3.66 4.02 -4 3 C-3 1 -3 1 0 0 Z " fill="#E0EAE9" transform="translate(224,216)"/>
<path d="M0 0 C-1.71054402 1.14036268 -3.44424833 2.25086051 -5.234375 3.26171875 C-10.44437871 6.21459352 -14.61092838 9.22175219 -18.625 13.6796875 C-20 15 -20 15 -22 15 C-21.72920883 11.78709934 -20.94104033 10.94709218 -18.48828125 8.74609375 C-17.44027344 7.98425781 -16.39226562 7.22242188 -15.3125 6.4375 C-14.27738281 5.67308594 -13.24226562 4.90867187 -12.17578125 4.12109375 C-4.00614251 -1.33538084 -4.00614251 -1.33538084 0 0 Z " fill="#85C8B2" transform="translate(241,256)"/>
<path d="M0 0 C0.66 0.33 1.32 0.66 2 1 C4.204364 1.22950319 6.41392173 1.41075933 8.625 1.5625 C9.81351563 1.64628906 11.00203125 1.73007813 12.2265625 1.81640625 C13.59941406 1.90728516 13.59941406 1.90728516 15 2 C14.67 3.32 14.34 4.64 14 6 C12.06494977 6.24900646 10.12674066 6.47356242 8.1875 6.6875 C7.10855469 6.81511719 6.02960938 6.94273437 4.91796875 7.07421875 C2 7 2 7 0.23828125 5.70703125 C-0.87997786 4.16545638 -1.94359732 2.58460402 -3 1 C-2.01 0.67 -1.02 0.34 0 0 Z M2 4 C2 4.33 2 4.66 2 5 C4.64 5 7.28 5 10 5 C10 4.67 10 4.34 10 4 C7.36 4 4.72 4 2 4 Z " fill="#E9EEF2" transform="translate(134,248)"/>
<path d="M0 0 C2.92209257 0.4495527 4.12676085 1.10725918 6.4375 3.0625 C11.17982899 6.42723728 17.47496067 5.43543592 23 5 C24.34321727 4.70904251 25.68359369 4.39492189 27 4 C23.47557144 7.68462985 21.35779752 8.19179334 16.25 8.3125 C10.94257605 8.28075703 8.13196129 7.5121671 4 4 C2.6808418 3.30570621 1.35350594 2.62469505 0 2 C0 1.34 0 0.68 0 0 Z " fill="#E4EAEC" transform="translate(214,232)"/>
<path d="M0 0 C0.33 0 0.66 0 1 0 C1.33 5.28 1.66 10.56 2 16 C2.33 14.02 2.66 12.04 3 10 C3.33 10 3.66 10 4 10 C4 12.64 4 15.28 4 18 C7.96 17.505 7.96 17.505 12 17 C12 17.99 12 18.98 12 20 C8.04 20 4.08 20 0 20 C0 13.4 0 6.8 0 0 Z " fill="#A9D4CA" transform="translate(311,220)"/>
<path d="M0 0 C1.32 0.66 2.64 1.32 4 2 C3.34 3.093125 2.68 4.18625 2 5.3125 C-0.62899945 10.46867145 -0.37471046 15.33770856 0 21 C-2.39763185 18.60236815 -2.34280586 17.66726502 -2.625 14.375 C-2.69976562 13.55773437 -2.77453125 12.74046875 -2.8515625 11.8984375 C-2.92503906 10.95871094 -2.92503906 10.95871094 -3 10 C-3.66 10 -4.32 10 -5 10 C-4.75 7.625 -4.75 7.625 -4 5 C-1.9375 3.6875 -1.9375 3.6875 0 3 C0 2.01 0 1.02 0 0 Z " fill="#40B291" transform="translate(253,209)"/>
<path d="M0 0 C2.875 0.3125 2.875 0.3125 6 1 C6.66 1.99 7.32 2.98 8 4 C6.68 3.67 5.36 3.34 4 3 C4.33 4.65 4.66 6.3 5 8 C4.17242187 7.50886719 4.17242187 7.50886719 3.328125 7.0078125 C0.61219077 5.83212285 -1.30551759 5.79751362 -4.25 5.875 C-5.58804687 5.90207031 -5.58804687 5.90207031 -6.953125 5.9296875 C-7.62859375 5.95289063 -8.3040625 5.97609375 -9 6 C-8 4 -8 4 -6.15234375 3.3671875 C-5.42144531 3.20476562 -4.69054687 3.04234375 -3.9375 2.875 C-2.83728516 2.62363281 -2.83728516 2.62363281 -1.71484375 2.3671875 C-1.14894531 2.24601563 -0.58304687 2.12484375 0 2 C0 1.34 0 0.68 0 0 Z " fill="#2BB88C" transform="translate(270,208)"/>
<path d="M0 0 C-0.33 0.66 -0.66 1.32 -1 2 C-3.22485352 2.41064453 -3.22485352 2.41064453 -6.12890625 2.6328125 C-7.68061523 2.75849609 -7.68061523 2.75849609 -9.26367188 2.88671875 C-10.8965918 3.00466797 -10.8965918 3.00466797 -12.5625 3.125 C-14.2012207 3.25455078 -14.2012207 3.25455078 -15.87304688 3.38671875 C-18.58149081 3.59960954 -21.29031607 3.80363237 -24 4 C-24.33 3.34 -24.66 2.68 -25 2 C-16.6030674 0.62707087 -8.51372785 -0.31274919 0 0 Z " fill="#83C8B1" transform="translate(266,252)"/>
<path d="M0 0 C0.66 1.32 1.32 2.64 2 4 C2.99 4 3.98 4 5 4 C5 7.3 5 10.6 5 14 C3.02 14 1.04 14 -1 14 C-0.67 9.38 -0.34 4.76 0 0 Z " fill="#83CAB0" transform="translate(212,269)"/>
<path d="M0 0 C3 1 3 1 4.75 3.4375 C5.36875 4.7059375 5.36875 4.7059375 6 6 C5.67 6.66 5.34 7.32 5 8 C4.34 7.67 3.68 7.34 3 7 C3.33 8.32 3.66 9.64 4 11 C3.34 11 2.68 11 2 11 C1.34 10.34 0.68 9.68 0 9 C-0.66 9.99 -1.32 10.98 -2 12 C-2.33 10.35 -2.66 8.7 -3 7 C-2.34 6.67 -1.68 6.34 -1 6 C-1.0309375 4.7934375 -1.0309375 4.7934375 -1.0625 3.5625 C-1 1 -1 1 0 0 Z " fill="#83C1B0" transform="translate(208,257)"/>
<path d="M0 0 C0.99 0.33 1.98 0.66 3 1 C3.05397335 3.4377963 3.09365616 5.87439685 3.125 8.3125 C3.14175781 9.00279297 3.15851563 9.69308594 3.17578125 10.40429688 C3.21217794 14.17135396 3.14378864 15.78431704 1 19 C0 18 0 18 -0.11352539 16.23413086 C-0.10828857 15.48526611 -0.10305176 14.73640137 -0.09765625 13.96484375 C-0.09443359 13.15595703 -0.09121094 12.34707031 -0.08789062 11.51367188 C-0.07951172 10.66353516 -0.07113281 9.81339844 -0.0625 8.9375 C-0.05798828 8.08349609 -0.05347656 7.22949219 -0.04882812 6.34960938 C-0.03700373 4.23304337 -0.01906769 2.11651315 0 0 Z " fill="#ECF1F2" transform="translate(297,220)"/>
<path d="M0 0 C2 1 2 1 3.125 3.4375 C4.2500509 8.01806438 4.1668521 12.30960202 4 17 C3.34 17 2.68 17 2 17 C1.67 13.7 1.34 10.4 1 7 C0.34 7 -0.32 7 -1 7 C-0.67 4.69 -0.34 2.38 0 0 Z " fill="#71B49F" transform="translate(208,265)"/>
<path d="M0 0 C1.98 0 3.96 0 6 0 C5.67 0.99 5.34 1.98 5 3 C4.2575 3 3.515 3 2.75 3 C-0.56830714 4.20665714 -0.80059811 4.98992519 -2.3125 8.0625 C-2.89266121 9.36728944 -3.46085342 10.67773548 -4 12 C-4.66 12 -5.32 12 -6 12 C-5.01 9.03 -4.02 6.06 -3 3 C-2.34 3 -1.68 3 -1 3 C-0.67 2.01 -0.34 1.02 0 0 Z " fill="#EEF6F8" transform="translate(205,208)"/>
<path d="M0 0 C1.32 0.33 2.64 0.66 4 1 C4.33 2.98 4.66 4.96 5 7 C2.525 8.485 2.525 8.485 0 10 C-0.33 9.34 -0.66 8.68 -1 8 C-0.525625 7.54625 -0.05125 7.0925 0.4375 6.625 C2.09027808 5.06741796 2.09027808 5.06741796 3 3 C1.02 3.33 -0.96 3.66 -3 4 C-2.01 2.68 -1.02 1.36 0 0 Z " fill="#2AB88D" transform="translate(257,178)"/>
<path d="M0 0 C2.97 0 5.94 0 9 0 C8.67 0.99 8.34 1.98 8 3 C8 2.34 8 1.68 8 1 C6.02 1 4.04 1 2 1 C2.66 3.31 3.32 5.62 4 8 C3.01 8.66 2.02 9.32 1 10 C-1.125 3.375 -1.125 3.375 0 0 Z " fill="#DDE4E8" transform="translate(178,207)"/>
<path d="M0 0 C7.42857143 -0.28571429 7.42857143 -0.28571429 11 2 C11 1.34 11 0.68 11 0 C11.66 0.33 12.32 0.66 13 1 C11.22555028 3.24606427 10.41647515 3.95081002 7.51953125 4.29296875 C6.17955078 4.24076172 6.17955078 4.24076172 4.8125 4.1875 C3.46091797 4.14689453 3.46091797 4.14689453 2.08203125 4.10546875 C1.39496094 4.07066406 0.70789063 4.03585938 0 4 C0 2.68 0 1.36 0 0 Z " fill="#35947A" transform="translate(269,173)"/>
<path d="M0 0 C0.33 0 0.66 0 1 0 C1 10.56 1 21.12 1 32 C0.67 32 0.34 32 0 32 C0 21.44 0 10.88 0 0 Z " fill="#D3DFDE" transform="translate(164,207)"/>
<path d="M0 0 C2.31 0 4.62 0 7 0 C6.67 0.99 6.34 1.98 6 3 C6.66 3.66 7.32 4.32 8 5 C5.08517222 5.80967438 3.53886783 6.21845993 0.6875 5.0625 C0.130625 4.711875 -0.42625 4.36125 -1 4 C-0.34 3.34 0.32 2.68 1 2 C0.67 1.34 0.34 0.68 0 0 Z " fill="#DADFE0" transform="translate(138,238)"/>
<path d="M0 0 C1.33333333 1.33333333 2.66666667 2.66666667 4 4 C4.66 4.33 5.32 4.66 6 5 C6 5.66 6 6.32 6 7 C5.43796875 6.71382813 4.8759375 6.42765625 4.296875 6.1328125 C1.97129077 4.98584069 -0.37770201 3.92160206 -2.75 2.875 C-3.54921875 2.52179688 -4.3484375 2.16859375 -5.171875 1.8046875 C-5.77515625 1.53914062 -6.3784375 1.27359375 -7 1 C-7 0.67 -7 0.34 -7 0 C-2.25 -1.125 -2.25 -1.125 0 0 Z " fill="#70B29F" transform="translate(201,252)"/>
<path d="M0 0 C0.598125 0.309375 1.19625 0.61875 1.8125 0.9375 C4.08956772 2.10209704 4.08956772 2.10209704 7 3 C6.67 3.99 6.34 4.98 6 6 C4.68 5.67 3.36 5.34 2 5 C2.33 4.34 2.66 3.68 3 3 C1.02 3.66 -0.96 4.32 -3 5 C-1.125 1.125 -1.125 1.125 0 0 Z " fill="#E2EEF1" transform="translate(239,230)"/>
<path d="M0 0 C0.33 1.32 0.66 2.64 1 4 C2.65 2.68 4.3 1.36 6 0 C6.66 0.33 7.32 0.66 8 1 C6.515 3.475 6.515 3.475 5 6 C3.35 5.67 1.7 5.34 0 5 C0 3.35 0 1.7 0 0 Z " fill="#3BAC8E" transform="translate(251,187)"/>
<path d="M0 0 C6.93 0 13.86 0 21 0 C21 0.33 21 0.66 21 1 C14.07 1 7.14 1 0 1 C0 0.67 0 0.34 0 0 Z " fill="#CADDD9" transform="translate(163,247)"/>
<path d="M0 0 C-0.33 1.65 -0.66 3.3 -1 5 C-2.65 5.33 -4.3 5.66 -6 6 C-5.6875 4.125 -5.6875 4.125 -5 2 C-2 0 -2 0 0 0 Z " fill="#18C186" transform="translate(260,181)"/>
<path d="M0 0 C1.51400391 0.01740234 1.51400391 0.01740234 3.05859375 0.03515625 C4.07050781 0.04417969 5.08242188 0.05320313 6.125 0.0625 C7.29869141 0.07990234 7.29869141 0.07990234 8.49609375 0.09765625 C7.01109375 1.58265625 7.01109375 1.58265625 5.49609375 3.09765625 C5.16609375 2.43765625 4.83609375 1.77765625 4.49609375 1.09765625 C0.56533731 1.67218371 0.56533731 1.67218371 -2.50390625 4.09765625 C-2.83390625 3.10765625 -3.16390625 2.11765625 -3.50390625 1.09765625 C-2.50390625 0.09765625 -2.50390625 0.09765625 0 0 Z " fill="#D0E1E1" transform="translate(292.50390625,206.90234375)"/>
<path d="M0 0 C1.134375 0.020625 2.26875 0.04125 3.4375 0.0625 C3.7675 0.7225 4.0975 1.3825 4.4375 2.0625 C3.7775 2.0625 3.1175 2.0625 2.4375 2.0625 C2.4375 2.7225 2.4375 3.3825 2.4375 4.0625 C1.1175 4.3925 -0.2025 4.7225 -1.5625 5.0625 C-1.5625 4.4025 -1.5625 3.7425 -1.5625 3.0625 C-2.5525 2.4025 -3.5425 1.7425 -4.5625 1.0625 C-3.5625 0.0625 -3.5625 0.0625 0 0 Z " fill="#E1E9EC" transform="translate(170.5625,203.9375)"/>
<path d="M0 0 C0.33 0.99 0.66 1.98 1 3 C-3.43076923 5.09230769 -3.43076923 5.09230769 -6.3125 4.625 C-6.869375 4.41875 -7.42625 4.2125 -8 4 C-2.25 0 -2.25 0 0 0 Z " fill="#2FA685" transform="translate(280,234)"/>
<path d="M0 0 C3 1 3 1 3 1 Z M-6 1 C-4.02 1 -2.04 1 0 1 C-0.33 1.99 -0.66 2.98 -1 4 C-2.65 4.33 -4.3 4.66 -6 5 C-6 3.68 -6 2.36 -6 1 Z " fill="#EEF1F2" transform="translate(304,208)"/>
<path d="M0 0 C0 0.33 0 0.66 0 1 C-3.96 1 -7.92 1 -12 1 C-7.01222852 -1.49388574 -5.33016752 -0.88836125 0 0 Z " fill="#90CBBA" transform="translate(269,248)"/>
<path d="M0 0 C0.66 0.33 1.32 0.66 2 1 C0 3 0 3 -2.1640625 3.1953125 C-3.38222656 3.16050781 -3.38222656 3.16050781 -4.625 3.125 C-5.44226563 3.10695312 -6.25953125 3.08890625 -7.1015625 3.0703125 C-7.72804687 3.04710937 -8.35453125 3.02390625 -9 3 C-9 2.67 -9 2.34 -9 2 C-6.94921875 1.77213542 -4.8984375 1.54427083 -2.84765625 1.31640625 C-0.98859771 1.18113386 -0.98859771 1.18113386 0 0 Z " fill="#DEE5E6" transform="translate(147,227)"/>
<path d="M0 0 C3.63 0 7.26 0 11 0 C11 0.33 11 0.66 11 1 C7.37 1 3.74 1 0 1 C0 0.67 0 0.34 0 0 Z " fill="#CADDDA" transform="translate(224,241)"/>
<path d="M0 0 C3.63 0 7.26 0 11 0 C11 0.33 11 0.66 11 1 C7.37 1 3.74 1 0 1 C0 0.67 0 0.34 0 0 Z " fill="#66BBA2" transform="translate(262,204)"/>
<path d="M0 0 C0 0.66 0 1.32 0 2 C-2.97 2 -5.94 2 -9 2 C-5.23312136 0.11656068 -3.97041037 -0.22057835 0 0 Z " fill="#8AC8B6" transform="translate(234,203)"/>
<path d="M0 0 C3.3 0 6.6 0 10 0 C10 0.33 10 0.66 10 1 C6.7 1 3.4 1 0 1 C0 0.67 0 0.34 0 0 Z " fill="#82C5AF" transform="translate(250,257)"/>
<path d="M0 0 C0.33 0.66 0.66 1.32 1 2 C-1.97 2 -4.94 2 -8 2 C-8 1.67 -8 1.34 -8 1 C-5.36 0.67 -2.72 0.34 0 0 Z " fill="#84C2AE" transform="translate(269,255)"/>
<path d="M0 0 C3.3 0 6.6 0 10 0 C10 0.33 10 0.66 10 1 C6.7 1 3.4 1 0 1 C0 0.67 0 0.34 0 0 Z " fill="#619D8A" transform="translate(168,256)"/>
<path d="M0 0 C2.625 -0.1875 2.625 -0.1875 5 0 C2.38058783 1.74627478 0.96175123 2.38722388 -2 3 C-1.34 2.01 -0.68 1.02 0 0 Z " fill="#81BFAC" transform="translate(237,251)"/>
<path d="M0 0 C3.3 0 6.6 0 10 0 C10 0.33 10 0.66 10 1 C6.7 1 3.4 1 0 1 C0 0.67 0 0.34 0 0 Z " fill="#86C3B1" transform="translate(247,249)"/>
<path d="M0 0 C2.97 0 5.94 0 9 0 C9 0.33 9 0.66 9 1 C6.03 1 3.06 1 0 1 C0 0.67 0 0.34 0 0 Z " fill="#659989" transform="translate(183,257)"/>
<path d="M0 0 C-2.64 0 -5.28 0 -8 0 C-8 -0.33 -8 -0.66 -8 -1 C-3.375 -2.25 -3.375 -2.25 0 0 Z " fill="#8BC8B8" transform="translate(298,206)"/>
<path d="M0 0 C2.31 0.33 4.62 0.66 7 1 C7 1.33 7 1.66 7 2 C4.36 2 1.72 2 -1 2 C-0.67 1.34 -0.34 0.68 0 0 Z " fill="#B2D1CC" transform="translate(205,204)"/>
<path d="M0 0 C2.97 0 5.94 0 9 0 C9 0.33 9 0.66 9 1 C6.03 1 3.06 1 0 1 C0 0.67 0 0.34 0 0 Z " fill="#D3DCDD" transform="translate(178,205)"/>
<path d="M0 0 C2.64 0 5.28 0 8 0 C8 0.33 8 0.66 8 1 C5.36 1 2.72 1 0 1 C0 0.67 0 0.34 0 0 Z " fill="#B1CFCA" transform="translate(291,241)"/>
<path d="M0 0 C0.33 0 0.66 0 1 0 C1 2.64 1 5.28 1 8 C0.67 8 0.34 8 0 8 C0 5.36 0 2.72 0 0 Z " fill="#46B092" transform="translate(286,219)"/>
<path d="M0 0 C0.33 0 0.66 0 1 0 C1 2.64 1 5.28 1 8 C0.67 8 0.34 8 0 8 C0 5.36 0 2.72 0 0 Z " fill="#DCE4E5" transform="translate(123,219)"/>
<path d="M0 0 C2.64 0 5.28 0 8 0 C8 0.33 8 0.66 8 1 C5.36 1 2.72 1 0 1 C0 0.67 0 0.34 0 0 Z " fill="#D1DBDC" transform="translate(152,205)"/>
<path d="M0 0 C2.64 0 5.28 0 8 0 C8 0.33 8 0.66 8 1 C5.36 1 2.72 1 0 1 C0 0.67 0 0.34 0 0 Z " fill="#6EC3A9" transform="translate(305,204)"/>
<path d="M0 0 C2.64 0 5.28 0 8 0 C8 0.33 8 0.66 8 1 C5.36 1 2.72 1 0 1 C0 0.67 0 0.34 0 0 Z " fill="#D9E3E3" transform="translate(137,204)"/>
<path d="M0 0 C0.33 0 0.66 0 1 0 C1 2.31 1 4.62 1 7 C0.67 7 0.34 7 0 7 C0 4.69 0 2.38 0 0 Z " fill="#93C3B5" transform="translate(208,272)"/>
<path d="M0 0 C2.31 0 4.62 0 7 0 C7 0.33 7 0.66 7 1 C4.69 1 2.38 1 0 1 C0 0.67 0 0.34 0 0 Z " fill="#CAD6D9" transform="translate(192,241)"/>
<path d="M0 0 C2.31 0 4.62 0 7 0 C7 0.33 7 0.66 7 1 C4.69 1 2.38 1 0 1 C0 0.67 0 0.34 0 0 Z " fill="#CED8DB" transform="translate(167,241)"/>
<path d="M0 0 C0 0.99 0 1.98 0 3 C-0.99 3 -1.98 3 -3 3 C-2.01 2.01 -1.02 1.02 0 0 Z " fill="#3DAF8D" transform="translate(277,192)"/>
<path d="M0 0 C1.98 0 3.96 0 6 0 C6 0.33 6 0.66 6 1 C4.02 1 2.04 1 0 1 C0 0.67 0 0.34 0 0 Z " fill="#B1D1CC" transform="translate(314,241)"/>
<path d="M0 0 C1.65 0 3.3 0 5 0 C3.02 0.99 3.02 0.99 1 2 C0.67 1.34 0.34 0.68 0 0 Z " fill="#C0D7D6" transform="translate(240,228)"/>
<path d="M0 0 C0.33 0 0.66 0 1 0 C1 1.98 1 3.96 1 6 C0.67 6 0.34 6 0 6 C0 4.02 0 2.04 0 0 Z " fill="#AFD1C9" transform="translate(324,221)"/>
<path d="M0 0 C0.66 0.33 1.32 0.66 2 1 C1.01 1.99 0.02 2.98 -1 4 C-0.67 2.68 -0.34 1.36 0 0 Z " fill="#39B18A" transform="translate(261,217)"/>
<path d="M0 0 C1.98 0 3.96 0 6 0 C6 0.33 6 0.66 6 1 C4.02 1 2.04 1 0 1 C0 0.67 0 0.34 0 0 Z " fill="#E5ECEE" transform="translate(140,215)"/>
<path d="M0 0 C1.32 0 2.64 0 4 0 C3.67 0.66 3.34 1.32 3 2 C2.01 1.34 1.02 0.68 0 0 Z " fill="#95C8BA" transform="translate(211,284)"/>
<path d="M0 0 C0.66 0.66 1.32 1.32 2 2 C1.01 2 0.02 2 -1 2 C-0.67 1.34 -0.34 0.68 0 0 Z " fill="#76B2A1" transform="translate(222,260)"/>
<path d="M0 0 C1.65 0 3.3 0 5 0 C5 0.33 5 0.66 5 1 C3.35 1 1.7 1 0 1 C0 0.67 0 0.34 0 0 Z " fill="#76AD9D" transform="translate(192,258)"/>
<path d="M0 0 C1.32 0.33 2.64 0.66 4 1 C3.01 1.495 3.01 1.495 2 2 C1.34 1.34 0.68 0.68 0 0 Z " fill="#DDE2E4" transform="translate(144,240)"/>
<path d="M0 0 C0.66 0.33 1.32 0.66 2 1 C1.34 1.66 0.68 2.32 0 3 C0 2.01 0 1.02 0 0 Z " fill="#D9EBE8" transform="translate(241,237)"/>
<path d="M0 0 C0 0.99 0 1.98 0 3 C-0.66 2.34 -1.32 1.68 -2 1 C-1.34 0.67 -0.68 0.34 0 0 Z " fill="#E4EAEE" transform="translate(149,238)"/>
<path d="M0 0 C0.99 0 1.98 0 3 0 C3 0.66 3 1.32 3 2 C2.01 2 1.02 2 0 2 C0 1.34 0 0.68 0 0 Z " fill="#DCE6E6" transform="translate(179,219)"/>
<path d="M0 0 C0.33 0 0.66 0 1 0 C1 1.65 1 3.3 1 5 C0.67 5 0.34 5 0 5 C0 3.35 0 1.7 0 0 Z " fill="#CCE4E0" transform="translate(323,215)"/>
<path d="M0 0 C1.98 0.99 1.98 0.99 4 2 C2.68 2 1.36 2 0 2 C0 1.34 0 0.68 0 0 Z " fill="#3FA385" transform="translate(267,215)"/>
<path d="M0 0 C0.66 0.66 1.32 1.32 2 2 C1.34 2.66 0.68 3.32 0 4 C0 2.68 0 1.36 0 0 Z " fill="#BCD7D7" transform="translate(213,207)"/>
<path d="M0 0 C0.33 0 0.66 0 1 0 C1 1.65 1 3.3 1 5 C0.67 5 0.34 5 0 5 C0 3.35 0 1.7 0 0 Z " fill="#48AB91" transform="translate(283,178)"/>
<path d="M0 0 C0.99 0.33 1.98 0.66 3 1 C2.01 1 1.02 1 0 1 C0 0.67 0 0.34 0 0 Z " fill="#84C2AD" transform="translate(229,265)"/>
<path d="M0 0 C0.66 0.33 1.32 0.66 2 1 C1.01 1 0.02 1 -1 1 C-0.67 0.67 -0.34 0.34 0 0 Z " fill="#7BB9A4" transform="translate(227,257)"/>
<path d="M0 0 C4 1 4 1 4 1 Z " fill="#80BAAD" transform="translate(163,255)"/>
<path d="M0 0 C0.99 0.33 1.98 0.66 3 1 C2.01 1 1.02 1 0 1 C0 0.67 0 0.34 0 0 Z " fill="#82BDAC" transform="translate(204,254)"/>
<path d="M0 0 C0.99 0.33 1.98 0.66 3 1 C2.01 1 1.02 1 0 1 C0 0.67 0 0.34 0 0 Z " fill="#EDF3F6" transform="translate(128,249)"/>
<path d="M0 0 C4 1 4 1 4 1 Z " fill="#43AC90" transform="translate(270,241)"/>
<path d="M0 0 C4 1 4 1 4 1 Z " fill="#48AB8F" transform="translate(261,241)"/>
<path d="M0 0 C1 4 1 4 1 4 Z " fill="#B4D4CC" transform="translate(211,225)"/>
<path d="M0 0 C0.33 0.99 0.66 1.98 1 3 C0.34 2.67 -0.32 2.34 -1 2 C-0.67 1.34 -0.34 0.68 0 0 Z " fill="#DFE8E8" transform="translate(182,221)"/>
<path d="M0 0 C0.99 0 1.98 0 3 0 C2.67 0.66 2.34 1.32 2 2 C1.34 1.34 0.68 0.68 0 0 Z " fill="#3EA386" transform="translate(263,216)"/>
<path d="M0 0 C0.99 0.33 1.98 0.66 3 1 C2.01 1 1.02 1 0 1 C0 0.67 0 0.34 0 0 Z " fill="#D9E1E4" transform="translate(163,194)"/>
<path d="M0 0 C0.66 0.66 1.32 1.32 2 2 C1.34 2 0.68 2 0 2 C0 1.34 0 0.68 0 0 Z " fill="#87C8B2" transform="translate(217,279)"/>
<path d="M0 0 C0.99 0.495 0.99 0.495 2 1 C1.01 1.495 1.01 1.495 0 2 C0 1.34 0 0.68 0 0 Z " fill="#7BB8A4" transform="translate(224,259)"/>
<path d="" fill="#8BC2B1" transform="translate(0,0)"/>
<path d="M0 0 C3 1 3 1 3 1 Z " fill="#E9F0F2" transform="translate(148,252)"/>
<path d="" fill="#DBE3E4" transform="translate(0,0)"/>
<path d="M0 0 C3 1 3 1 3 1 Z " fill="#52B096" transform="translate(266,242)"/>
<path d="M0 0 C0.66 0.66 1.32 1.32 2 2 C1.34 2 0.68 2 0 2 C0 1.34 0 0.68 0 0 Z " fill="#D5E5E5" transform="translate(216,235)"/>
<path d="M0 0 C3 1 3 1 3 1 Z " fill="#9ECDC0" transform="translate(232,230)"/>
<path d="M0 0 C3 1 3 1 3 1 Z " fill="#4AAF91" transform="translate(262,229)"/>
<path d="" fill="#44B191" transform="translate(0,0)"/>
<path d="" fill="#49AE93" transform="translate(0,0)"/>
<path d="" fill="#D9E1E3" transform="translate(0,0)"/>
<path d="" fill="#CFE0DF" transform="translate(0,0)"/>
<path d="" fill="#D1E7E3" transform="translate(0,0)"/>
<path d="" fill="#E6EBEC" transform="translate(0,0)"/>
<path d="M0 0 C0.33 0.66 0.66 1.32 1 2 C0.34 1.67 -0.32 1.34 -1 1 C-0.67 0.67 -0.34 0.34 0 0 Z " fill="#DDE3E5" transform="translate(150,206)"/>
<path d="M0 0 C3 1 3 1 3 1 Z " fill="#9ECFC5" transform="translate(302,205)"/>
<path d="M0 0 C3 1 3 1 3 1 Z " fill="#5BB59A" transform="translate(259,205)"/>
<path d="M0 0 C3 1 3 1 3 1 Z " fill="#B0D2CA" transform="translate(234,205)"/>
<path d="M0 0 C3 1 3 1 3 1 Z " fill="#A6D0C7" transform="translate(222,205)"/>
<path d="M0 0 C3 1 3 1 3 1 Z " fill="#D5DDE0" transform="translate(145,205)"/>
<path d="M0 0 C3 1 3 1 3 1 Z " fill="#45AF90" transform="translate(267,199)"/>
<path d="M0 0 C3 1 3 1 3 1 Z " fill="#4FAA93" transform="translate(255,199)"/>
<path d="" fill="#42AE8F" transform="translate(0,0)"/>
<path d="M0 0 C0.66 0.66 1.32 1.32 2 2 C1.34 2 0.68 2 0 2 C0 1.34 0 0.68 0 0 Z " fill="#5CAC97" transform="translate(267,173)"/>
<path d="M0 0 C3 1 3 1 3 1 Z " fill="#5AAF99" transform="translate(258,174)"/>
<path d="M0 0 C3 1 3 1 3 1 Z " fill="#87CBB8" transform="translate(261,173)"/>
<path d="M0 0 C3 1 3 1 3 1 Z " fill="#7EC6B1" transform="translate(276,172)"/>
<path d="" fill="#95C9B9" transform="translate(0,0)"/>
<path d="" fill="#A8CFC5" transform="translate(0,0)"/>
<path d="" fill="#82C3B1" transform="translate(0,0)"/>
<path d="M0 0 C2 1 2 1 2 1 Z " fill="#7FC1AB" transform="translate(234,262)"/>
<path d="M0 0 C2 1 2 1 2 1 Z " fill="#7CBFAA" transform="translate(236,261)"/>
<path d="M0 0 C2 1 2 1 2 1 Z " fill="#88BFAE" transform="translate(201,261)"/>
<path d="M0 0 C2 1 2 1 2 1 Z " fill="#7CC0AA" transform="translate(238,260)"/>
<path d="M0 0 C2 1 2 1 2 1 Z " fill="#86BDAA" transform="translate(199,260)"/>
<path d="M0 0 C2 1 2 1 2 1 Z " fill="#82BAA9" transform="translate(197,259)"/>
<path d="M0 0 C2 1 2 1 2 1 Z " fill="#76A094" transform="translate(178,257)"/>
<path d="M0 0 C2 1 2 1 2 1 Z " fill="#7BB8A5" transform="translate(229,256)"/>
<path d="M0 0 C2 1 2 1 2 1 Z " fill="#7BB8A7" transform="translate(201,252)"/>
<path d="M0 0 C2 1 2 1 2 1 Z " fill="#EDF3F4" transform="translate(151,251)"/>
<path d="M0 0 C2 1 2 1 2 1 Z " fill="#EEF3F4" transform="translate(131,251)"/>
<path d="" fill="#90B3AF" transform="translate(0,0)"/>
<path d="M0 0 C2 1 2 1 2 1 Z " fill="#88C2B1" transform="translate(272,246)"/>
<path d="M0 0 C2 1 2 1 2 1 Z " fill="#88C6B5" transform="translate(267,245)"/>
<path d="M0 0 C2 1 2 1 2 1 Z " fill="#D1DEDC" transform="translate(161,245)"/>
<path d="M0 0 C2 1 2 1 2 1 Z " fill="#74C2AB" transform="translate(296,244)"/>
<path d="M0 0 C2 1 2 1 2 1 Z " fill="#40AC91" transform="translate(274,240)"/>
<path d="M0 0 C2 1 2 1 2 1 Z " fill="#49AC8E" transform="translate(259,240)"/>
<path d="M0 0 C2 1 2 1 2 1 Z " fill="#D1E3E2" transform="translate(236,240)"/>
<path d="M0 0 C2 1 2 1 2 1 Z " fill="#CDDFDD" transform="translate(222,240)"/>
<path d="M0 0 C2 1 2 1 2 1 Z " fill="#46AD8D" transform="translate(257,239)"/>
<path d="M0 0 C2 1 2 1 2 1 Z " fill="#D5E5E4" transform="translate(220,239)"/>
<path d="M0 0 C2 1 2 1 2 1 Z " fill="#3EAD8E" transform="translate(277,238)"/>
<path d="" fill="#DFEAEA" transform="translate(0,0)"/>
<path d="M0 0 C2 1 2 1 2 1 Z " fill="#42B08F" transform="translate(254,237)"/>
<path d="" fill="#DFEAEA" transform="translate(0,0)"/>
<path d="" fill="#E2EDED" transform="translate(0,0)"/>
<path d="" fill="#D3DADB" transform="translate(0,0)"/>
<path d="" fill="#D0E2E2" transform="translate(0,0)"/>
<path d="" fill="#DEE5E5" transform="translate(0,0)"/>
<path d="" fill="#57AE98" transform="translate(0,0)"/>
<path d="M0 0 C2 1 2 1 2 1 Z " fill="#C0D9D5" transform="translate(246,227)"/>
<path d="" fill="#DDE8E7" transform="translate(0,0)"/>
<path d="" fill="#DAE6E5" transform="translate(0,0)"/>
<path d="" fill="#A4CEC4" transform="translate(0,0)"/>
<path d="" fill="#D3E3E1" transform="translate(0,0)"/>
<path d="" fill="#DDE9E7" transform="translate(0,0)"/>
<path d="" fill="#E6EEF0" transform="translate(0,0)"/>
<path d="" fill="#C9DFDB" transform="translate(0,0)"/>
<path d="M0 0 C2 1 2 1 2 1 Z " fill="#CBE4DE" transform="translate(302,216)"/>
<path d="M0 0 C2 1 2 1 2 1 Z " fill="#E3EBEE" transform="translate(146,216)"/>
<path d="M0 0 C2 1 2 1 2 1 Z " fill="#D3DADB" transform="translate(120,216)"/>
<path d="" fill="#D2E9E5" transform="translate(0,0)"/>
<path d="" fill="#DCE9EB" transform="translate(0,0)"/>
<path d="" fill="#D2E6E4" transform="translate(0,0)"/>
<path d="" fill="#E7EEEF" transform="translate(0,0)"/>
<path d="" fill="#D3E4E8" transform="translate(0,0)"/>
<path d="M0 0 C2 1 2 1 2 1 Z " fill="#7AC1AC" transform="translate(325,209)"/>
<path d="" fill="#CBE0DC" transform="translate(0,0)"/>
<path d="" fill="#E5EAEB" transform="translate(0,0)"/>
<path d="M0 0 C2 1 2 1 2 1 Z " fill="#47AD8F" transform="translate(277,207)"/>
<path d="M0 0 C2 1 2 1 2 1 Z " fill="#D3E6E4" transform="translate(238,207)"/>
<path d="M0 0 C2 1 2 1 2 1 Z " fill="#D0E7E3" transform="translate(219,207)"/>
<path d="M0 0 C2 1 2 1 2 1 Z " fill="#BDDDD9" transform="translate(315,206)"/>
<path d="M0 0 C2 1 2 1 2 1 Z " fill="#47AD91" transform="translate(275,206)"/>
<path d="M0 0 C2 1 2 1 2 1 Z " fill="#56B295" transform="translate(257,206)"/>
<path d="M0 0 C2 1 2 1 2 1 Z " fill="#ABD3CB" transform="translate(313,205)"/>
<path d="M0 0 C2 1 2 1 2 1 Z " fill="#4BAB92" transform="translate(273,205)"/>
<path d="M0 0 C2 1 2 1 2 1 Z " fill="#D6DEE0" transform="translate(135,205)"/>
<path d="" fill="#73C0AA" transform="translate(0,0)"/>
<path d="M0 0 C2 1 2 1 2 1 Z " fill="#3FAD8C" transform="translate(270,198)"/>
<path d="M0 0 C2 1 2 1 2 1 Z " fill="#DDE6EC" transform="translate(173,192)"/>
<path d="M0 0 C2 1 2 1 2 1 Z " fill="#D4DDE1" transform="translate(171,191)"/>
<path d="" fill="#54A894" transform="translate(0,0)"/>
<path d="M0 0 C2 1 2 1 2 1 Z " fill="#4DA991" transform="translate(254,176)"/>
<path d="M0 0 C2 1 2 1 2 1 Z " fill="#4DA891" transform="translate(256,175)"/>
<path d="" fill="#86BAAA" transform="translate(0,0)"/>
<path d="" fill="#9CCDBE" transform="translate(0,0)"/>
<path d="" fill="#96C7BA" transform="translate(0,0)"/>
<path d="" fill="#7EC1AE" transform="translate(0,0)"/>
<path d="" fill="#82C3B1" transform="translate(0,0)"/>
<path d="" fill="#83C1B0" transform="translate(0,0)"/>
<path d="" fill="#97CBBD" transform="translate(0,0)"/>
<path d="" fill="#86C4B3" transform="translate(0,0)"/>
<path d="" fill="#85C4B3" transform="translate(0,0)"/>
<path d="" fill="#85C5B0" transform="translate(0,0)"/>
<path d="" fill="#85C6B0" transform="translate(0,0)"/>
<path d="" fill="#8EBCAF" transform="translate(0,0)"/>
<path d="" fill="#88C3B4" transform="translate(0,0)"/>
<path d="" fill="#BAD4CF" transform="translate(0,0)"/>
<path d="" fill="#BFCCCA" transform="translate(0,0)"/>
<path d="" fill="#86C0B2" transform="translate(0,0)"/>
<path d="" fill="#94C7B9" transform="translate(0,0)"/>
<path d="" fill="#9DC6BB" transform="translate(0,0)"/>
<path d="" fill="#97CBBD" transform="translate(0,0)"/>
<path d="" fill="#97CBBD" transform="translate(0,0)"/>
<path d="" fill="#9DC6BB" transform="translate(0,0)"/>
<path d="" fill="#CCDAD8" transform="translate(0,0)"/>
<path d="" fill="#8CBBAE" transform="translate(0,0)"/>
<path d="" fill="#9BC5BA" transform="translate(0,0)"/>
<path d="" fill="#82BAAD" transform="translate(0,0)"/>
<path d="" fill="#81BFAE" transform="translate(0,0)"/>
<path d="" fill="#83C2B0" transform="translate(0,0)"/>
<path d="" fill="#D1DCDC" transform="translate(0,0)"/>
<path d="" fill="#7FBEAB" transform="translate(0,0)"/>
<path d="" fill="#D0DCDB" transform="translate(0,0)"/>
<path d="" fill="#B0D0C8" transform="translate(0,0)"/>
<path d="" fill="#D0DEDD" transform="translate(0,0)"/>
<path d="" fill="#EEF2F4" transform="translate(0,0)"/>
<path d="" fill="#87C2B0" transform="translate(0,0)"/>
<path d="" fill="#90C6B7" transform="translate(0,0)"/>
<path d="" fill="#EBEFF1" transform="translate(0,0)"/>
<path d="" fill="#A1C1BA" transform="translate(0,0)"/>
<path d="" fill="#E9EEEF" transform="translate(0,0)"/>
<path d="" fill="#E9EEEF" transform="translate(0,0)"/>
<path d="" fill="#DDE4E6" transform="translate(0,0)"/>
<path d="" fill="#EBEFF1" transform="translate(0,0)"/>
<path d="" fill="#CCDAD8" transform="translate(0,0)"/>
<path d="" fill="#7FB8A8" transform="translate(0,0)"/>
<path d="" fill="#85C5B3" transform="translate(0,0)"/>
<path d="" fill="#BAD4CF" transform="translate(0,0)"/>
<path d="" fill="#CDDAD9" transform="translate(0,0)"/>
<path d="" fill="#E0E6E7" transform="translate(0,0)"/>
<path d="" fill="#73C4AC" transform="translate(0,0)"/>
<path d="" fill="#DAE5E7" transform="translate(0,0)"/>
<path d="" fill="#C8D0D1" transform="translate(0,0)"/>
<path d="" fill="#3FAD90" transform="translate(0,0)"/>
<path d="" fill="#D5E8E6" transform="translate(0,0)"/>
<path d="" fill="#BFCCCB" transform="translate(0,0)"/>
<path d="" fill="#E4EBEF" transform="translate(0,0)"/>
<path d="" fill="#CBE2E0" transform="translate(0,0)"/>
<path d="" fill="#41AF8D" transform="translate(0,0)"/>
<path d="" fill="#D9E8E7" transform="translate(0,0)"/>
<path d="" fill="#DFEAEB" transform="translate(0,0)"/>
<path d="" fill="#AAD1C8" transform="translate(0,0)"/>
<path d="" fill="#62B99F" transform="translate(0,0)"/>
<path d="" fill="#DBE8E8" transform="translate(0,0)"/>
<path d="" fill="#DDE5E6" transform="translate(0,0)"/>
<path d="" fill="#5DB89E" transform="translate(0,0)"/>
<path d="" fill="#DAECEA" transform="translate(0,0)"/>
<path d="" fill="#DEE6E6" transform="translate(0,0)"/>
<path d="" fill="#3FAF8F" transform="translate(0,0)"/>
<path d="" fill="#83C4B2" transform="translate(0,0)"/>
<path d="" fill="#CEDCDB" transform="translate(0,0)"/>
<path d="" fill="#DCE4E5" transform="translate(0,0)"/>
<path d="" fill="#D3DADB" transform="translate(0,0)"/>
<path d="" fill="#D8E8E8" transform="translate(0,0)"/>
<path d="" fill="#E6ECF0" transform="translate(0,0)"/>
<path d="" fill="#83C5B2" transform="translate(0,0)"/>
<path d="" fill="#E4EAEE" transform="translate(0,0)"/>
<path d="" fill="#78C0AB" transform="translate(0,0)"/>
<path d="" fill="#D8E9E7" transform="translate(0,0)"/>
<path d="" fill="#49AB90" transform="translate(0,0)"/>
<path d="" fill="#D1E6E5" transform="translate(0,0)"/>
<path d="" fill="#A2CAC0" transform="translate(0,0)"/>
<path d="" fill="#BFCCCB" transform="translate(0,0)"/>
<path d="" fill="#D7EAEB" transform="translate(0,0)"/>
<path d="" fill="#DCEBEA" transform="translate(0,0)"/>
<path d="" fill="#D9ECEE" transform="translate(0,0)"/>
<path d="" fill="#A7CEC5" transform="translate(0,0)"/>
<path d="" fill="#EAEFEF" transform="translate(0,0)"/>
<path d="" fill="#82C5B2" transform="translate(0,0)"/>
<path d="" fill="#A4CEC4" transform="translate(0,0)"/>
<path d="" fill="#C5CFCF" transform="translate(0,0)"/>
<path d="" fill="#7CC6B1" transform="translate(0,0)"/>
<path d="" fill="#CAD1D2" transform="translate(0,0)"/>
<path d="" fill="#7BC6B0" transform="translate(0,0)"/>
<path d="" fill="#82C5B2" transform="translate(0,0)"/>
<path d="" fill="#D6E0E0" transform="translate(0,0)"/>
<path d="" fill="#D1DBDB" transform="translate(0,0)"/>
<path d="" fill="#C5D9D6" transform="translate(0,0)"/>
<path d="" fill="#79BAA7" transform="translate(0,0)"/>
<path d="" fill="#C7E2DD" transform="translate(0,0)"/>
<path d="" fill="#45AB90" transform="translate(0,0)"/>
<path d="" fill="#C7D8D6" transform="translate(0,0)"/>
<path d="" fill="#89C9B6" transform="translate(0,0)"/>
<path d="" fill="#D8EBE8" transform="translate(0,0)"/>
<path d="" fill="#53B59A" transform="translate(0,0)"/>
<path d="" fill="#CAD1D2" transform="translate(0,0)"/>
<path d="" fill="#4FB396" transform="translate(0,0)"/>
<path d="" fill="#7FC8B2" transform="translate(0,0)"/>
<path d="" fill="#D6E1E0" transform="translate(0,0)"/>
<path d="" fill="#D6E9E6" transform="translate(0,0)"/>
<path d="" fill="#CCE0DF" transform="translate(0,0)"/>
<path d="" fill="#D4EAE7" transform="translate(0,0)"/>
<path d="" fill="#D8EAE8" transform="translate(0,0)"/>
<path d="" fill="#CEE2DF" transform="translate(0,0)"/>
<path d="" fill="#EAF0F3" transform="translate(0,0)"/>
<path d="" fill="#D1E8E5" transform="translate(0,0)"/>
<path d="" fill="#43AA8C" transform="translate(0,0)"/>
<path d="" fill="#7AB6A5" transform="translate(0,0)"/>
<path d="" fill="#D8EAE7" transform="translate(0,0)"/>
<path d="" fill="#CCE3DE" transform="translate(0,0)"/>
<path d="" fill="#EAF1F3" transform="translate(0,0)"/>
<path d="" fill="#CAD1D2" transform="translate(0,0)"/>
<path d="" fill="#CAE2E1" transform="translate(0,0)"/>
<path d="" fill="#D1E2E1" transform="translate(0,0)"/>
<path d="" fill="#B1D7D1" transform="translate(0,0)"/>
<path d="" fill="#C7DFDB" transform="translate(0,0)"/>
<path d="" fill="#BCD8D5" transform="translate(0,0)"/>
<path d="" fill="#E0E6E9" transform="translate(0,0)"/>
<path d="" fill="#C7D0D0" transform="translate(0,0)"/>
<path d="" fill="#66BFA5" transform="translate(0,0)"/>
<path d="" fill="#69BCA4" transform="translate(0,0)"/>
<path d="" fill="#ECF3F6" transform="translate(0,0)"/>
<path d="" fill="#E3EBEF" transform="translate(0,0)"/>
<path d="" fill="#D4DFDF" transform="translate(0,0)"/>
<path d="" fill="#65BBA2" transform="translate(0,0)"/>
<path d="" fill="#6FBDA6" transform="translate(0,0)"/>
<path d="" fill="#77B7A5" transform="translate(0,0)"/>
<path d="" fill="#83C6B3" transform="translate(0,0)"/>
<path d="" fill="#8DBCB0" transform="translate(0,0)"/>
<path d="" fill="#EBF3F5" transform="translate(0,0)"/>
<path d="" fill="#DEE6EB" transform="translate(0,0)"/>
<path d="" fill="#D6E0E0" transform="translate(0,0)"/>
<path d="" fill="#D6E0E0" transform="translate(0,0)"/>
<path d="" fill="#5DAF97" transform="translate(0,0)"/>
<path d="" fill="#73BFA9" transform="translate(0,0)"/>
<path d="" fill="#7DB7A7" transform="translate(0,0)"/>
<path d="" fill="#CED8D8" transform="translate(0,0)"/>
<path d="" fill="#73BEA8" transform="translate(0,0)"/>
<path d="" fill="#CED8D8" transform="translate(0,0)"/>
<path d="" fill="#81C4B1" transform="translate(0,0)"/>
<path d="" fill="#55A191" transform="translate(0,0)"/>
<path d="" fill="#83C4B2" transform="translate(0,0)"/>
<path d="" fill="#3AAD8A" transform="translate(0,0)"/>
<path d="" fill="#63AB9A" transform="translate(0,0)"/>
<path d="" fill="#39AE8A" transform="translate(0,0)"/>
<path d="" fill="#38AD8D" transform="translate(0,0)"/>
<path d="" fill="#39AB8C" transform="translate(0,0)"/>
<path d="" fill="#E0E5E7" transform="translate(0,0)"/>
<path d="" fill="#E2E7E8" transform="translate(0,0)"/>
<path d="" fill="#3FB092" transform="translate(0,0)"/>
<path d="" fill="#E0E5E7" transform="translate(0,0)"/>
<path d="" fill="#79C1AC" transform="translate(0,0)"/>
<path d="" fill="#56B198" transform="translate(0,0)"/>
<path d="" fill="#DEE2E4" transform="translate(0,0)"/>
<path d="" fill="#7BC5B0" transform="translate(0,0)"/>
<path d="" fill="#45A289" transform="translate(0,0)"/>
<path d="" fill="#44A38A" transform="translate(0,0)"/>
<path d="" fill="#43A189" transform="translate(0,0)"/>
<path d="" fill="#48A48D" transform="translate(0,0)"/>
<path d="" fill="#78C4AE" transform="translate(0,0)"/>
<path d="" fill="#52A694" transform="translate(0,0)"/>
<path d="" fill="#5FAB9A" transform="translate(0,0)"/>
<path d="" fill="#56A593" transform="translate(0,0)"/>
<path d="" fill="#73BFAA" transform="translate(0,0)"/>
<path d="" fill="#78C4AE" transform="translate(0,0)"/>
<path d="" fill="#84C6B4" transform="translate(0,0)"/>
<path d="" fill="#7FC1AF" transform="translate(0,0)"/>
<path d="" fill="#7CC4AF" transform="translate(0,0)"/>
<path d="" fill="#7FC1AF" transform="translate(0,0)"/>
<path d="" fill="#6FB5A1" transform="translate(0,0)"/>
</svg>
